<svg width="687" height="529" viewBox="0 0 687 529" fill="none" xmlns="http://www.w3.org/2000/svg">
<path d="M493.719 125.356L507.771 122.574L493.539 119.72L506.393 113.397L491.91 114.324L502.688 104.89L488.937 109.534L496.907 97.6301L484.826 105.675L489.443 92.1156L479.857 103.012L480.808 88.7191L474.367 101.726L471.586 87.674L468.733 101.904L462.41 89.0515L463.335 103.535L453.901 92.7555L458.545 106.506L446.642 98.5368L454.687 110.617L441.127 106L452.024 115.586L437.731 114.636L450.738 121.076L436.686 123.857L450.916 126.711L438.063 133.035L452.547 132.108L441.769 141.542L455.519 136.898L447.55 148.802L459.63 140.757L455.012 154.316L464.599 143.42L463.649 157.713L470.088 144.705L472.869 158.758L475.723 144.528L482.047 157.38L481.12 142.896L490.554 153.675L485.91 139.924L497.813 147.895L489.768 135.813L503.329 140.431L492.431 130.846L506.724 131.795L493.719 125.356Z" fill="#FFA88C"/>
<path d="M472.226 138.937C480.909 138.937 487.948 131.899 487.948 123.216C487.948 114.533 480.909 107.494 472.226 107.494C463.544 107.494 456.505 114.533 456.505 123.216C456.505 131.899 463.544 138.937 472.226 138.937Z" fill="white"/>
<path d="M349.679 160.373H410.11V290.965H349.679V160.373Z" fill="#00BCD4"/>
<path d="M425.451 290.964H410.107V160.372H425.451V290.964Z" fill="#00A0B5"/>
<path d="M349.679 154.839H410.11V160.373H349.679V154.839Z" fill="#A481C1"/>
<path d="M425.451 160.37H410.107V154.837H425.451V160.37Z" fill="#26221E" fill-opacity="0.87"/>
<path d="M360.644 175.172H399.143M360.644 189.6H399.143M360.644 204.027H399.143M360.644 218.454H399.143M360.644 232.882H399.143M360.644 247.309H399.143M360.644 261.738H399.143M360.644 276.165H399.143" stroke="#26221E" stroke-opacity="0.87" stroke-width="2.621" stroke-linejoin="round"/>
<path d="M293.585 117.588V254.952H250.447V143.943L250.863 143.688L251.686 143.187L260.373 137.882L261.712 137.059L271.223 131.251L272.562 130.435L282.072 124.62L283.412 123.804L293.585 117.588Z" fill="#00BCD4"/>
<path d="M293.585 117.588H324.902V254.952H293.585V117.588Z" fill="#26221E" fill-opacity="0.87"/>
<path d="M261.713 137.058V254.952H260.373V137.882L261.713 137.058ZM272.562 130.435V254.952H271.223V131.251L272.562 130.435ZM283.412 123.803V254.952H282.073V124.62L283.412 123.803Z" fill="white"/>
<path d="M293.19 143.187H324.903V144.526H293.19V143.187ZM293.19 165.937H324.903V167.277H293.19V165.937ZM293.19 188.695H324.903V190.035H293.19V188.695ZM293.19 211.453H324.903V212.792H293.19V211.453ZM293.19 234.205H324.903V235.544H293.19V234.205Z" fill="#FFA88C"/>
<path d="M303.766 117.588H305.105V254.952H303.766V117.588ZM314.617 117.588H315.956V254.952H314.617V117.588Z" fill="#FFA88C"/>
<path d="M293.585 143.187V144.525H250.447V143.943L250.866 143.688L251.698 143.187H293.585ZM250.447 165.937H293.585V167.277H250.447V165.937ZM250.447 188.695H293.585V190.035H250.447V188.695ZM250.447 211.453H293.585V212.792H250.447V211.453ZM250.447 234.205H293.585V235.544H250.447V234.205Z" fill="white"/>
<path d="M219.849 206.365H278.829V333.822H219.849V206.365Z" fill="#A481C1"/>
<path d="M255.859 206.365H278.826V333.822H255.859V206.365Z" fill="#FFA88C"/>
<path d="M262.476 222.595H272.842M262.476 233.99H272.842M262.476 245.385H272.842M262.476 256.78H272.842M262.476 268.175H272.842M262.476 279.57H272.842M262.476 290.965H272.842M262.476 302.36H272.842M262.476 313.753H272.842M262.476 325.148H272.842M228.978 222.595H247.766M228.978 233.99H247.766M228.978 245.385H247.766M228.978 268.175H247.766M228.978 279.57H247.766M228.978 290.965H247.766M228.978 302.36H247.766M228.978 313.753H247.766M228.978 325.148H247.766" stroke="white" stroke-width="1.462" stroke-miterlimit="10"/>
<path d="M182.361 341.755H142.258V230.696L182.361 219.38V341.755Z" fill="#FFA88C"/>
<path d="M211.47 341.755H182.361V219.38L211.47 235.856V341.755Z" fill="#26221E" fill-opacity="0.87"/>
<path d="M187.785 235.364V327.425M194.094 238.681V327.425M200.403 242V327.425M206.713 245.318V327.425M149.69 241.422V327.425M156.001 239.907V327.425M162.31 238.393V327.425M168.619 236.878V327.425M174.928 235.364V327.425" stroke="white" stroke-width="0.644" stroke-miterlimit="10" stroke-linecap="round"/>
<path d="M186.434 293.749H267.879V367.527H186.434V293.749Z" fill="#FFA88C"/>
<path d="M235.326 293.749H267.878V367.527H235.326V293.749Z" fill="#26221E" fill-opacity="0.87"/>
<path d="M186.434 293.749H267.879L243.432 256.86H210.879L186.434 293.749Z" fill="white"/>
<path d="M186.434 293.749L210.879 256.86L235.327 293.749H186.434ZM204.225 330.638H217.535V367.527H204.225V330.638Z" fill="#A481C1"/>
<path d="M210.879 279.889L201.784 294.534H219.975L210.879 279.889ZM315.073 412.353H266.155V236.584L315.073 212.014V412.353Z" fill="#FFA88C"/>
<path d="M315.074 212.014H350.583V412.353H315.074V212.014Z" fill="#26221E" fill-opacity="0.87"/>
<path d="M273.991 246.48H308.37M273.991 256.349H308.37M273.991 266.218H308.37M273.991 276.086H308.37M273.991 285.955H308.37M273.991 295.824H308.37M273.991 305.694H308.37M273.991 315.563H308.37M273.991 325.431H308.37M273.991 335.3H308.37M273.991 345.169H308.37" stroke="white" stroke-width="1.596" stroke-miterlimit="10"/>
<path d="M321.173 246.48H346.108M321.173 256.349H346.108M321.173 266.218H346.108M321.173 276.086H346.108M321.173 285.955H346.108M321.173 295.824H346.108M321.173 305.694H346.108M321.173 315.563H346.108M321.173 325.431H346.108M321.173 335.3H346.108M321.173 345.169H346.108" stroke="#FFA88C" stroke-width="1.596" stroke-miterlimit="10"/>
<path d="M486.55 231.139V214.636H478.644V195.016H453.309V214.636H445.402V231.139H437.844V352.728H494.108V231.139H486.55Z" fill="#26221E" fill-opacity="0.87"/>
<path d="M473.838 231.139V214.636H465.932V195.016H440.597V214.636H432.69V231.139H425.132V352.728H481.397V231.139H473.838Z" fill="#00BCD4"/>
<path d="M436.786 237.842V344.292M447.771 237.842V344.292M458.755 237.842V344.292M469.739 237.842V344.292" stroke="white" stroke-width="1.233" stroke-miterlimit="10"/>
<path d="M332.261 289.895H397.32V414.98H332.261V289.895Z" fill="white"/>
<path d="M332.261 289.895L364.733 257.423H429.677L397.32 289.895H332.261Z" fill="#A481C1"/>
<path d="M429.675 257.423V414.978H397.318V289.273L429.675 257.423Z" fill="#26221E" fill-opacity="0.87"/>
<path d="M417.258 303.809V298.236H422.831V303.809H417.258Z" fill="white"/>
<path d="M417.256 314.981V309.408H422.829V314.981H417.256Z" fill="white"/>
<path d="M417.259 326.15V320.576H422.832V326.15H417.259Z" fill="white"/>
<path d="M417.258 337.322V331.748H422.831V337.322H417.258Z" fill="white"/>
<path d="M406.989 303.809V298.236H412.562V303.809H406.989Z" fill="white"/>
<path d="M406.987 314.981V309.408H412.56V314.981H406.987Z" fill="white"/>
<path d="M406.991 326.15V320.576H412.564V326.15H406.991Z" fill="white"/>
<path d="M406.989 337.322V331.747H412.562V337.322H406.989Z" fill="white"/>
<path d="M340.632 298.236H345.779V311.625H340.632V298.236ZM355.702 298.236H360.849V311.625H355.702V298.236ZM370.771 298.236H375.919V311.625H370.771V298.236ZM385.841 298.236H390.989V311.625H385.841V298.236ZM340.632 322.796H345.779V336.185H340.632V322.796ZM355.702 322.796H360.849V336.185H355.702V322.796ZM370.771 322.796H375.919V336.185H370.771V322.796ZM385.841 322.796H390.989V336.185H385.841V322.796Z" fill="#FFA88C"/>
<path d="M415.479 355.327H545.367V485.316H415.479V355.327Z" fill="#00BCD4"/>
<path d="M480.422 355.327H545.366V485.316H480.422V355.327Z" fill="#00A0B5"/>
<path d="M545.369 355.326H480.423L447.951 322.855H512.892L545.369 355.326Z" fill="#26221E" fill-opacity="0.87"/>
<path d="M415.479 355.327L447.951 322.855L480.422 355.327H415.479Z" fill="#00BCD4"/>
<path d="M489.812 364.715H503.507V378.412H489.812V364.715Z" fill="white"/>
<path d="M522.282 364.715H535.979V378.412H522.282V364.715ZM489.812 397.187H503.507V410.884H489.812V397.187ZM522.282 397.187H535.979V410.884H522.282V397.187ZM489.812 429.659H503.507V485.316H489.812V429.659Z" fill="#26221E" fill-opacity="0.87"/>
<path d="M522.281 429.659H535.978V443.356H522.281V429.659ZM426.83 366.679H436.6V376.448H426.83V366.679ZM443.066 366.679H452.836V376.448H443.066V366.679ZM459.302 366.679H469.072V376.448H459.302V366.679ZM426.83 382.915H436.6V392.684H426.83V382.915ZM443.066 382.915H452.836V392.684H443.066V382.915ZM459.302 382.915H469.072V392.684H459.302V382.915ZM426.83 399.151H436.6V408.92H426.83V399.151ZM443.066 399.151H452.836V408.92H443.066V399.151ZM459.302 399.151H469.072V408.92H459.302V399.151Z" fill="white"/>
<path d="M452.834 341.86C452.834 342.825 452.548 343.77 452.011 344.573C451.475 345.376 450.712 346.002 449.819 346.371C448.927 346.741 447.945 346.838 446.998 346.649C446.051 346.461 445.181 345.996 444.498 345.313C443.815 344.63 443.35 343.76 443.161 342.812C442.973 341.865 443.07 340.883 443.439 339.991C443.809 339.099 444.435 338.336 445.238 337.799C446.041 337.263 446.985 336.976 447.951 336.976C448.592 336.976 449.227 337.103 449.819 337.348C450.412 337.593 450.95 337.953 451.404 338.407C451.857 338.86 452.217 339.398 452.462 339.991C452.708 340.583 452.834 341.218 452.834 341.86Z" fill="#26221E" fill-opacity="0.87"/>
<path d="M491.682 355.326H490.471L457.996 322.855H459.212L491.682 355.326ZM502.553 355.326H501.34L468.865 322.855H470.086L502.553 355.326ZM513.426 355.326H512.21L479.739 322.855H480.955L513.426 355.326ZM524.296 355.326H523.083L490.608 322.855H491.83L524.296 355.326ZM535.169 355.326H533.953L501.483 322.855H502.698L535.169 355.326Z" fill="#FFA88C"/>
<path d="M415.595 452.74H285.708V387.796H415.595V452.74Z" fill="#FFA88C"/>
<path d="M350.651 452.74H285.707V387.796H350.651V452.74Z" fill="white"/>
<path d="M415.596 387.799H285.708L318.18 355.327H383.124L415.596 387.799Z" fill="#A481C1"/>
<path d="M415.595 387.799L383.123 355.327L350.651 387.799H415.595Z" fill="#26221E" fill-opacity="0.87"/>
<path d="M304.095 407.656H298.52V402.084H304.095V407.656Z" fill="#26221E" fill-opacity="0.87"/>
<path d="M315.264 407.656H309.689V402.084H315.264V407.656Z" fill="#26221E" fill-opacity="0.87"/>
<path d="M326.437 407.656H320.864V402.084H326.437V407.656Z" fill="#26221E" fill-opacity="0.87"/>
<path d="M337.608 407.656H332.036V402.084H337.608V407.656Z" fill="#26221E" fill-opacity="0.87"/>
<path d="M304.095 417.924H298.52V412.352H304.095V417.924Z" fill="#26221E" fill-opacity="0.87"/>
<path d="M315.264 417.924H309.689V412.352H315.264V417.924Z" fill="#26221E" fill-opacity="0.87"/>
<path d="M326.437 417.924H320.864V412.352H326.437V417.924Z" fill="#26221E" fill-opacity="0.87"/>
<path d="M337.608 417.924H332.036V412.352H337.608V417.924Z" fill="#26221E" fill-opacity="0.87"/>
<path d="M304.095 428.197H298.52V422.624H304.095V428.197Z" fill="#26221E" fill-opacity="0.87"/>
<path d="M315.264 428.197H309.689V422.624H315.264V428.197Z" fill="#26221E" fill-opacity="0.87"/>
<path d="M326.437 428.197H320.864V422.624H326.437V428.197Z" fill="#26221E" fill-opacity="0.87"/>
<path d="M337.608 428.197H332.036V422.624H337.608V428.197Z" fill="#26221E" fill-opacity="0.87"/>
<path d="M383.123 381.042C386.319 381.042 388.91 378.451 388.91 375.254C388.91 372.058 386.319 369.467 383.123 369.467C379.927 369.467 377.336 372.058 377.336 375.254C377.336 378.451 379.927 381.042 383.123 381.042Z" fill="white"/>
<path d="M359.964 397.187H369.321V423.935H359.964V397.187ZM378.442 397.187H387.799V423.935H378.442V397.187ZM396.921 397.187H406.278V423.935H396.921V397.187Z" fill="white"/>
<path d="M351.7 437.666L332.938 456.43H456.992L438.229 437.666H351.7Z" fill="#A481C1"/>
<path d="M351.7 437.666L332.938 456.43H407.411L388.648 437.666H351.7Z" fill="#00BCD4"/>
<path d="M332.938 456.43H456.992V530.902H332.938V456.43Z" fill="#FFA88C"/>
<path d="M407.41 456.43H456.991V530.902H407.41V456.43Z" fill="#26221E" fill-opacity="0.87"/>
<path d="M370.175 445.134L358.531 456.778H381.818L370.175 445.134Z" fill="#FFA88C"/>
<path d="M439.905 475.542H444.341V485.542H439.905V475.542ZM431.014 475.542H435.45V485.542H431.014V475.542ZM422.122 475.542H426.558V485.542H422.122V475.542ZM439.905 493.969H444.341V503.969H439.905V493.969ZM431.014 493.969H435.45V503.969H431.014V493.969ZM422.122 493.969H426.558V503.969H422.122V493.969Z" fill="white"/>
<path d="M342.639 467.726H349.99V475.077H342.639V467.726ZM357.762 467.726H365.114V475.077H357.762V467.726ZM372.885 467.726H380.236V475.077H372.885V467.726ZM388.008 467.726H395.36V475.077H388.008V467.726ZM342.639 481.867H349.99V489.218H342.639V481.867ZM357.762 481.867H365.114V489.218H357.762V481.867ZM372.885 481.867H380.236V489.218H372.885V481.867ZM388.008 481.867H395.36V489.218H388.008V481.867ZM342.639 496.007H349.99V512.814H342.639V496.007ZM357.762 496.007H365.114V512.814H357.762V496.007ZM372.885 496.007H380.236V512.814H372.885V496.007ZM388.008 496.007H395.36V512.814H388.008V496.007ZM132.948 273.903H167.763V292.475H132.948V273.903Z" fill="#26221E" fill-opacity="0.87"/>
<path d="M94.9766 286.781H142.932V419.588H94.9766V286.781Z" fill="#00BCD4"/>
<path d="M142.933 286.781H177.741V419.588H142.933V286.781Z" fill="#26221E" fill-opacity="0.87"/>
<path d="M151.763 320.006V407.177M161.126 320.006V407.177M170.488 320.006V407.177" stroke="#00BCD4" stroke-width="1.453" stroke-miterlimit="10"/>
<path d="M103.865 320.006V407.177M113.925 320.006V407.177M123.985 320.006V407.177M134.044 320.006V407.177" stroke="white" stroke-width="1.453" stroke-miterlimit="10"/>
<path d="M104.111 273.903H133.798V292.475H104.111V273.903Z" fill="#00BCD4"/>
<path d="M102.865 310.277H134.904M102.865 303.509H134.904M102.865 296.741H134.904" stroke="white" stroke-width="1.453" stroke-miterlimit="10"/>
<path d="M286.931 452.743H157.044V355.327H286.931V452.743Z" fill="#A481C1"/>
<path d="M221.985 452.743H157.041V355.327H221.985V452.743Z" fill="#FFA88C"/>
<path d="M286.928 355.327H157.042L189.514 322.855H254.458L286.928 355.327Z" fill="#26221E" fill-opacity="0.87"/>
<path d="M286.928 355.327L254.457 322.855L221.985 355.327H286.928Z" fill="white"/>
<path d="M210.636 376.448H200.866V366.679H210.636V376.448Z" fill="white"/>
<path d="M194.398 376.448H184.629V366.679H194.398V376.448Z" fill="white"/>
<path d="M178.163 376.448H168.394V366.679H178.163V376.448Z" fill="white"/>
<path d="M210.636 392.684H200.866V382.915H210.636V392.684Z" fill="white"/>
<path d="M194.398 392.684H184.629V382.915H194.398V392.684Z" fill="white"/>
<path d="M178.163 392.684H168.394V382.915H178.163V392.684Z" fill="white"/>
<path d="M210.636 408.92H200.866V399.15H210.636V408.92Z" fill="white"/>
<path d="M194.398 408.92H184.629V399.15H194.398V408.92Z" fill="white"/>
<path d="M178.163 408.92H168.394V399.15H178.163V408.92Z" fill="white"/>
<path d="M233.163 420.271H246.323V452.743H233.163V420.271Z" fill="#26221E" fill-opacity="0.87"/>
<path d="M231.478 366.679H277.667V371.563H231.478V366.679ZM231.478 375.97H277.667V380.855H231.478V375.97ZM231.478 385.26H277.667V390.145H231.478V385.26ZM231.478 394.55H277.667V399.435H231.478V394.55Z" fill="white"/>
<path d="M108.246 428.851H136.508V500.011H108.246V428.851Z" fill="#26221E" fill-opacity="0.87"/>
<path d="M87.5449 390.466H158.257V432.916H87.5449V390.466Z" fill="#FFA88C"/>
<path d="M129.995 390.466H158.257V432.916H129.995V390.466Z" fill="#00BCD4"/>
<path d="M87.5449 390.466H158.256L137.031 369.241H108.769L87.5449 390.466ZM108.769 428.851H179.481L158.256 407.627H129.993L108.769 428.851Z" fill="#A481C1"/>
<path d="M108.77 369.241L87.5445 390.466L108.77 394.613L129.994 390.466L108.77 369.241ZM151.22 428.852L129.994 407.627H87.5459L65.7969 428.852V500.011H179.482V428.852H151.22Z" fill="#FFA88C"/>
<path d="M151.221 428.851H179.483V500.011H151.221V428.851Z" fill="#00BCD4"/>
<path d="M155.515 436.735H164.578V440.552H155.515V436.735ZM167.268 436.735H176.33V440.552H167.268V436.735ZM155.515 445.27H164.578V449.087H155.515V445.27ZM167.268 445.27H176.33V449.087H167.268V445.27ZM133.72 394.184H142.782V398.002H133.72V394.184ZM145.472 394.184H154.534V398.002H145.472V394.184ZM133.72 400.846H142.782V404.664H133.72V400.846ZM145.472 400.846H154.534V404.664H145.472V400.846ZM155.515 453.804H164.578V457.622H155.515V453.804ZM167.268 453.804H176.33V457.622H167.268V453.804Z" fill="white"/>
<path d="M112.992 384.6C112.992 385.539 112.714 386.457 112.192 387.238C111.671 388.019 110.929 388.628 110.062 388.987C109.194 389.347 108.239 389.441 107.318 389.258C106.397 389.075 105.551 388.622 104.887 387.958C104.223 387.294 103.771 386.448 103.588 385.527C103.404 384.606 103.499 383.651 103.858 382.784C104.218 381.916 104.826 381.174 105.607 380.653C106.388 380.131 107.306 379.853 108.246 379.853C109.505 379.854 110.712 380.354 111.602 381.244C112.492 382.135 112.992 383.342 112.992 384.601V384.6ZM117.559 500.011H99.8652V440.627C99.8652 438.28 100.797 436.03 102.456 434.371C104.115 432.711 106.366 431.779 108.712 431.779C109.874 431.779 111.025 432.007 112.098 432.452C113.172 432.897 114.147 433.549 114.969 434.37C115.79 435.192 116.442 436.167 116.887 437.241C117.332 438.314 117.56 439.465 117.56 440.627L117.559 500.011Z" fill="#26221E" fill-opacity="0.87"/>
<path d="M455.359 450.364H589.205V530.715H455.359V450.364Z" fill="white"/>
<path d="M535.711 450.364H589.206V530.715H535.711V450.364Z" fill="#26221E" fill-opacity="0.87"/>
<path d="M455.359 450.364H589.205L549.03 410.19H495.534L455.359 450.364Z" fill="#A481C1"/>
<path d="M455.359 450.364L495.534 410.19L535.71 450.364L459.843 450.504L455.359 450.364ZM570.769 470.987H575.556V481.775H570.769V470.987ZM561.176 470.987H565.962V481.775H561.176V470.987ZM551.583 470.987H556.369V481.775H551.583V470.987ZM570.769 490.867H575.556V501.655H570.769V490.867ZM561.176 490.867H565.962V501.655H561.176V490.867ZM551.583 490.867H556.369V501.655H551.583V490.867Z" fill="white"/>
<path d="M463.65 467.089H524.686V470.61H463.65V467.089ZM463.65 480.682H524.686V484.204H463.65V480.682ZM463.65 494.273H524.686V497.795H463.65V494.273ZM463.65 507.867H524.686V511.388H463.65V507.867Z" fill="#00BCD4"/>
<path d="M216.456 417.296L209.457 422.886H273.477V412.99H223.623L216.456 417.296ZM303.709 448.023L273.477 422.886H209.457L177.982 448.023H303.709Z" fill="#26221E" fill-opacity="0.87"/>
<path d="M177.982 448.026H303.707V509.482H177.982V448.026Z" fill="#FFA88C"/>
<path d="M254.472 448.026H303.708V509.482H254.472V448.026ZM190.656 457.88H195.567V467.487H190.656V457.88ZM205.035 457.88H209.946V467.487H205.035V457.88ZM219.414 457.88H224.325V467.487H219.414V457.88ZM233.793 457.88H238.704V467.487H233.793V457.88Z" fill="#26221E" fill-opacity="0.87"/>
<path d="M254.92 448.023H177.982L203.567 423.021V412.99H231.682V423.021L254.92 448.023Z" fill="#00BCD4"/>
<path d="M283.636 439.436L287.837 456.484H335.522L326.971 439.436H283.636ZM158.766 507.961H300.172V578.665H158.766V507.961Z" fill="#FFA88C"/>
<path d="M307.83 507.963H158.766L194.115 472.608H272.48L307.83 507.963Z" fill="#26221E" fill-opacity="0.87"/>
<path d="M282.493 507.963H158.766L194.115 472.608H247.144L282.493 507.963Z" fill="#A481C1"/>
<path d="M172.039 515.867L197.619 490.285L223.2 515.867H172.039Z" fill="#FFA88C"/>
<path d="M215.296 507.963L234.892 490.285H197.618L215.296 507.963Z" fill="#26221E" fill-opacity="0.87"/>
<path d="M247.145 456.484H294.854V578.663H247.145V456.484Z" fill="#00BCD4"/>
<path d="M335.524 578.663H294.856V456.484H335.524V578.663Z" fill="#26221E" fill-opacity="0.87"/>
<path d="M255.718 439.436L247.167 456.484H294.853L286.302 439.436H255.718Z" fill="#00BCD4"/>
<path d="M274.221 450.375C274.22 451.161 273.987 451.93 273.55 452.583C273.113 453.237 272.492 453.747 271.765 454.047C271.038 454.348 270.239 454.427 269.467 454.273C268.696 454.12 267.988 453.741 267.432 453.185C266.876 452.628 266.497 451.92 266.344 451.148C266.19 450.377 266.269 449.578 266.57 448.851C266.871 448.124 267.381 447.503 268.035 447.067C268.689 446.63 269.458 446.396 270.244 446.396C270.766 446.396 271.284 446.499 271.766 446.699C272.249 446.899 272.687 447.192 273.057 447.562C273.426 447.931 273.719 448.37 273.919 448.852C274.118 449.335 274.221 449.852 274.221 450.375ZM201.755 507.961C201.755 508.748 201.521 509.516 201.084 510.17C200.647 510.824 200.026 511.333 199.3 511.634C198.573 511.935 197.773 512.014 197.002 511.86C196.231 511.707 195.523 511.328 194.966 510.772C194.41 510.216 194.032 509.507 193.878 508.736C193.725 507.965 193.803 507.165 194.104 506.439C194.405 505.712 194.914 505.091 195.568 504.654C196.222 504.217 196.991 503.984 197.777 503.983C198.299 503.983 198.817 504.086 199.3 504.286C199.782 504.486 200.221 504.779 200.59 505.148C200.96 505.518 201.253 505.956 201.453 506.439C201.652 506.922 201.755 507.439 201.755 507.961ZM261.071 479.526H253.957V469.459C253.957 468.516 254.332 467.611 254.999 466.944C255.666 466.277 256.571 465.902 257.514 465.902C258.457 465.902 259.362 466.277 260.029 466.944C260.696 467.611 261.071 468.516 261.071 469.459V479.526ZM273.801 479.526H266.687V469.459C266.687 468.516 267.062 467.611 267.729 466.944C268.396 466.277 269.301 465.902 270.244 465.902C271.187 465.902 272.092 466.277 272.759 466.944C273.426 467.611 273.801 468.516 273.801 469.459V479.526ZM281.827 465.902H284.122C284.438 465.902 284.752 465.965 285.044 466.086C285.336 466.207 285.602 466.384 285.826 466.608C286.05 466.832 286.227 467.098 286.348 467.391C286.469 467.683 286.531 467.997 286.531 468.313V479.524H279.418V468.313C279.417 467.997 279.48 467.683 279.601 467.391C279.722 467.098 279.899 466.832 280.123 466.608C280.347 466.384 280.612 466.207 280.905 466.086C281.197 465.965 281.511 465.902 281.827 465.902ZM261.071 508.913H253.957V498.849C253.957 497.906 254.332 497.001 254.999 496.334C255.666 495.667 256.571 495.293 257.514 495.293C258.457 495.293 259.362 495.667 260.029 496.334C260.696 497.001 261.071 497.906 261.071 498.849V508.913ZM273.801 508.913H266.687V498.849C266.687 497.906 267.062 497.001 267.729 496.334C268.396 495.667 269.301 495.293 270.244 495.293C271.187 495.293 272.092 495.667 272.759 496.334C273.426 497.001 273.801 497.906 273.801 498.849V508.913ZM281.827 495.293H284.122C284.761 495.293 285.374 495.547 285.825 495.999C286.277 496.451 286.531 497.064 286.531 497.704V508.913H279.418V497.704C279.417 497.387 279.48 497.074 279.601 496.781C279.722 496.488 279.899 496.223 280.123 495.999C280.347 495.775 280.612 495.597 280.905 495.476C281.197 495.355 281.511 495.293 281.827 495.293ZM261.071 538.304H253.957V528.24C253.957 527.296 254.332 526.392 254.999 525.725C255.666 525.058 256.571 524.683 257.514 524.683C258.457 524.683 259.362 525.058 260.029 525.725C260.696 526.392 261.071 527.296 261.071 528.24V538.304ZM273.801 538.304H266.687V528.24C266.687 527.296 267.062 526.392 267.729 525.725C268.396 525.058 269.301 524.683 270.244 524.683C271.187 524.683 272.092 525.058 272.759 525.725C273.426 526.392 273.801 527.296 273.801 528.24V538.304ZM281.827 524.683H284.122C284.438 524.683 284.751 524.745 285.044 524.866C285.336 524.987 285.602 525.165 285.825 525.389C286.049 525.612 286.227 525.878 286.348 526.17C286.469 526.463 286.531 526.776 286.531 527.092V538.304H279.418V527.094C279.417 526.777 279.48 526.464 279.601 526.171C279.722 525.879 279.899 525.613 280.123 525.389C280.347 525.165 280.612 524.988 280.905 524.866C281.197 524.745 281.511 524.683 281.827 524.683Z" fill="white"/>
<path d="M292.085 439.436L300.636 456.484M299.395 439.436L307.948 456.484M306.707 439.436L315.258 456.484M314.018 439.436L322.57 456.484M321.33 439.436L329.881 456.484" stroke="#26221E" stroke-opacity="0.87" stroke-width="0.218" stroke-miterlimit="10"/>
<path d="M165.613 523.221H176.319V533.926H165.613V523.221ZM186.912 523.221H197.617V533.926H186.912V523.221ZM208.211 523.221H218.916V533.926H208.211V523.221ZM229.509 523.221H240.215V533.926H229.509V523.221ZM165.613 543.312H176.319V554.018H165.613V543.312ZM186.912 543.312H197.617V554.018H186.912V543.312ZM208.211 543.312H218.916V554.018H208.211V543.312ZM229.509 543.312H240.215V554.018H229.509V543.312Z" fill="white"/>
<path d="M3.0127 498.868H167.205V578.663H3.0127V498.868Z" fill="#26221E" fill-opacity="0.87"/>
<path d="M24.3018 498.868H145.786V578.663H24.3018V498.868Z" fill="#FFA88C"/>
<path d="M37.6733 498.868L24.3018 470.033H145.786L164.105 498.868H37.6733Z" fill="#A481C1"/>
<path d="M124.631 498.68C124.631 488.198 120.467 478.146 113.055 470.734C105.644 463.323 95.5911 459.159 85.1094 459.159C74.6276 459.159 64.5752 463.323 57.1635 470.734C49.7517 478.146 45.5879 488.198 45.5879 498.68C45.5879 498.743 45.5923 498.806 45.5923 498.87H124.625C124.625 498.806 124.631 498.743 124.631 498.68Z" fill="white"/>
<path d="M105.62 499.241C105.62 477.519 96.436 459.909 85.1096 459.909C73.7832 459.909 64.5996 477.519 64.5996 499.241L64.6011 499.431H105.617L105.62 499.241Z" fill="#A481C1"/>
<path d="M45.5918 498.868H124.629V578.663H45.5918V498.868Z" fill="#00A0B5"/>
<path d="M64.5996 498.868H105.62V578.663H64.5996V498.868Z" fill="#00BCD4"/>
<path d="M124.63 498.868L145.784 470.033L166.937 498.868H124.63Z" fill="#26221E" fill-opacity="0.87"/>
<path d="M3.0127 498.868L24.3011 470.033L45.5881 498.868H3.0127Z" fill="#00BCD4"/>
<path d="M119.015 527.32H111.782V512.125C111.782 511.65 111.875 511.179 112.057 510.74C112.238 510.301 112.505 509.902 112.841 509.566C113.176 509.23 113.575 508.964 114.014 508.782C114.453 508.6 114.923 508.507 115.398 508.507C115.874 508.507 116.344 508.6 116.783 508.782C117.222 508.964 117.62 509.23 117.956 509.566C118.292 509.902 118.558 510.301 118.74 510.74C118.922 511.179 119.015 511.65 119.015 512.125V527.32ZM130.697 517.422H127.461V510.619C127.461 510.19 127.631 509.778 127.935 509.475C128.238 509.171 128.65 509.001 129.079 509.001C129.508 509.001 129.92 509.171 130.223 509.475C130.527 509.778 130.697 510.19 130.697 510.619V517.422ZM136.596 517.422H133.357V510.619C133.357 510.406 133.399 510.196 133.481 509.999C133.562 509.803 133.681 509.624 133.832 509.474C133.982 509.324 134.161 509.205 134.357 509.124C134.554 509.042 134.764 509.001 134.977 509.001C135.406 509.001 135.818 509.171 136.121 509.475C136.425 509.778 136.595 510.19 136.595 510.619L136.596 517.422ZM142.496 517.422H139.257V510.619C139.257 510.19 139.427 509.778 139.731 509.475C140.034 509.171 140.446 509.001 140.875 509.001C141.087 509.001 141.298 509.042 141.495 509.124C141.691 509.205 141.87 509.324 142.02 509.474C142.17 509.624 142.29 509.803 142.371 509.999C142.452 510.196 142.494 510.406 142.494 510.619L142.496 517.422ZM130.697 537.028H127.461V530.225C127.461 529.796 127.631 529.384 127.935 529.081C128.238 528.777 128.65 528.607 129.079 528.607C129.508 528.607 129.92 528.777 130.223 529.081C130.527 529.384 130.697 529.796 130.697 530.225V537.028ZM136.596 537.028H133.357V530.225C133.357 530.012 133.399 529.802 133.481 529.606C133.562 529.409 133.681 529.231 133.832 529.08C133.982 528.93 134.161 528.811 134.357 528.73C134.554 528.648 134.764 528.607 134.977 528.607C135.406 528.607 135.818 528.777 136.121 529.081C136.425 529.384 136.595 529.796 136.595 530.225L136.596 537.028ZM142.496 537.028H139.257V530.225C139.257 529.796 139.427 529.384 139.731 529.081C140.034 528.777 140.446 528.607 140.875 528.607C141.087 528.607 141.298 528.648 141.495 528.73C141.691 528.811 141.87 528.93 142.02 529.08C142.17 529.231 142.29 529.409 142.371 529.606C142.452 529.802 142.494 530.012 142.494 530.225L142.496 537.028ZM130.697 556.634H127.461V549.831C127.461 549.402 127.631 548.991 127.935 548.687C128.238 548.384 128.65 548.213 129.079 548.213C129.508 548.213 129.92 548.384 130.223 548.687C130.527 548.991 130.697 549.402 130.697 549.831V556.634ZM136.596 556.634H133.357V549.831C133.357 549.619 133.399 549.408 133.481 549.212C133.562 549.015 133.681 548.837 133.832 548.687C133.982 548.536 134.161 548.417 134.357 548.336C134.554 548.255 134.764 548.213 134.977 548.213C135.406 548.213 135.818 548.384 136.121 548.687C136.425 548.991 136.595 549.402 136.595 549.831L136.596 556.634ZM142.496 556.634H139.257V549.831C139.257 549.402 139.427 548.991 139.731 548.687C140.034 548.384 140.446 548.213 140.875 548.213C141.087 548.213 141.298 548.255 141.495 548.336C141.691 548.417 141.87 548.536 142.02 548.687C142.17 548.837 142.29 549.015 142.371 549.212C142.452 549.408 142.494 549.619 142.494 549.831L142.496 556.634ZM30.9153 517.422H27.6777V510.619C27.6777 510.19 27.8482 509.778 28.1517 509.475C28.4551 509.171 28.8667 509.001 29.2958 509.001C29.7249 509.001 30.1365 509.171 30.4399 509.475C30.7434 509.778 30.9139 510.19 30.9139 510.619L30.9153 517.422ZM36.8132 517.422H33.5771V510.619C33.5771 510.19 33.7476 509.778 34.051 509.475C34.3545 509.171 34.766 509.001 35.1952 509.001C35.6243 509.001 36.0359 509.171 36.3393 509.475C36.6427 509.778 36.8132 510.19 36.8132 510.619V517.422ZM42.7126 517.422H39.475V510.619C39.475 510.19 39.6455 509.778 39.9489 509.475C40.2524 509.171 40.6639 509.001 41.0931 509.001C41.5222 509.001 41.9338 509.171 42.2372 509.475C42.5406 509.778 42.7111 510.19 42.7111 510.619L42.7126 517.422ZM30.9153 537.028H27.6777V530.225C27.6777 529.796 27.8482 529.384 28.1517 529.081C28.4551 528.777 28.8667 528.607 29.2958 528.607C29.7249 528.607 30.1365 528.777 30.4399 529.081C30.7434 529.384 30.9139 529.796 30.9139 530.225L30.9153 537.028ZM36.8132 537.028H33.5771V530.225C33.5771 529.796 33.7476 529.384 34.051 529.081C34.3545 528.777 34.766 528.607 35.1952 528.607C35.6243 528.607 36.0359 528.777 36.3393 529.081C36.6427 529.384 36.8132 529.796 36.8132 530.225V537.028ZM42.7126 537.028H39.475V530.225C39.475 529.796 39.6455 529.384 39.9489 529.081C40.2524 528.777 40.6639 528.607 41.0931 528.607C41.5222 528.607 41.9338 528.777 42.2372 529.081C42.5406 529.384 42.7111 529.796 42.7111 530.225L42.7126 537.028Z" fill="white"/>
<path d="M59.2166 527.32H51.9834V512.125C51.9832 511.65 52.0766 511.179 52.2581 510.741C52.4397 510.302 52.7059 509.903 53.0416 509.567C53.3773 509.231 53.7759 508.964 54.2146 508.782C54.6533 508.601 55.1236 508.507 55.5985 508.507C56.0737 508.506 56.5443 508.6 56.9833 508.782C57.4224 508.963 57.8213 509.23 58.1573 509.566C58.4933 509.902 58.7598 510.301 58.9415 510.74C59.1233 511.179 59.2168 511.649 59.2166 512.125V527.32ZM119.016 556.634H111.783V541.438C111.783 540.479 112.164 539.559 112.842 538.88C113.521 538.202 114.441 537.821 115.4 537.821C116.359 537.821 117.279 538.202 117.957 538.88C118.635 539.559 119.016 540.479 119.016 541.438V556.634Z" fill="white"/>
<path d="M664.862 557.967H625.557V486.159H664.862V557.967Z" fill="#26221E" fill-opacity="0.87"/>
<path d="M589.272 557.968H628.578V486.16L608.134 468.399L589.272 486.16V557.968Z" fill="#FFA88C"/>
<path d="M608.135 468.399H644.028L664.862 486.16H628.579L608.135 468.399Z" fill="#FFA88C"/>
<path d="M620.842 496.093V505.255H613.179V496.093C613.18 495.301 613.427 494.529 613.886 493.883C614.345 493.237 614.992 492.75 615.74 492.488C616.145 492.332 616.576 492.255 617.01 492.261C618.026 492.263 618.999 492.668 619.718 493.386C620.436 494.104 620.841 495.078 620.843 496.094L620.842 496.093Z" fill="#A481C1"/>
<path d="M618.278 496.093V505.255H613.176V496.093C613.032 495.685 612.988 495.248 613.048 494.819C613.107 494.391 613.269 493.983 613.518 493.629C613.768 493.276 614.099 492.988 614.484 492.789C614.868 492.59 615.295 492.486 615.727 492.486C616.16 492.486 616.587 492.59 616.971 492.789C617.355 492.988 617.686 493.276 617.936 493.629C618.186 493.983 618.348 494.391 618.407 494.819C618.467 495.248 618.422 495.685 618.278 496.093ZM603.789 496.093V505.255H596.124V496.093C596.125 495.301 596.373 494.528 596.832 493.883C597.291 493.237 597.939 492.75 598.687 492.488C599.091 492.332 599.522 492.255 599.955 492.261C600.971 492.263 601.945 492.668 602.663 493.386C603.382 494.104 603.786 495.077 603.789 496.093Z" fill="#A481C1"/>
<path d="M601.227 496.093V505.255H596.125V496.093C595.981 495.685 595.937 495.248 595.996 494.819C596.056 494.391 596.217 493.983 596.467 493.629C596.717 493.276 597.048 492.988 597.433 492.789C597.817 492.59 598.243 492.486 598.676 492.486C599.109 492.486 599.535 492.59 599.92 492.789C600.304 492.988 600.635 493.276 600.885 493.629C601.135 493.983 601.296 494.391 601.356 494.819C601.416 495.248 601.371 495.685 601.227 496.093ZM620.842 517.391V526.552H613.179V517.391C613.18 516.599 613.427 515.827 613.886 515.181C614.344 514.535 614.992 514.047 615.74 513.785C616.145 513.63 616.576 513.553 617.01 513.559C618.026 513.561 618.999 513.966 619.718 514.684C620.436 515.402 620.841 516.376 620.844 517.391H620.842Z" fill="#A481C1"/>
<path d="M618.278 517.392V526.552H613.176V517.392C613.032 516.983 612.988 516.547 613.048 516.118C613.107 515.689 613.269 515.281 613.518 514.928C613.768 514.575 614.099 514.286 614.484 514.088C614.868 513.889 615.295 513.785 615.727 513.785C616.16 513.785 616.587 513.889 616.971 514.088C617.355 514.286 617.686 514.575 617.936 514.928C618.186 515.281 618.348 515.689 618.407 516.118C618.467 516.547 618.422 516.983 618.278 517.392ZM603.789 517.392V526.552H596.124V517.392C596.125 516.599 596.372 515.826 596.831 515.18C597.29 514.534 597.939 514.047 598.687 513.785C599.091 513.63 599.522 513.553 599.955 513.559C600.971 513.562 601.944 513.966 602.663 514.684C603.381 515.402 603.786 516.376 603.789 517.392Z" fill="#A481C1"/>
<path d="M601.227 517.391V526.552H596.125V517.391C595.981 516.983 595.937 516.547 595.996 516.118C596.056 515.689 596.217 515.281 596.467 514.928C596.717 514.575 597.048 514.286 597.433 514.087C597.817 513.889 598.243 513.785 598.676 513.785C599.109 513.785 599.535 513.889 599.92 514.087C600.304 514.286 600.635 514.575 600.885 514.928C601.135 515.281 601.296 515.689 601.356 516.118C601.416 516.547 601.371 516.983 601.227 517.391ZM620.842 538.689V547.85H613.179V538.689C613.18 537.897 613.427 537.124 613.886 536.479C614.345 535.833 614.993 535.346 615.74 535.084C616.145 534.928 616.576 534.85 617.01 534.856C618.026 534.859 619 535.263 619.718 535.982C620.437 536.7 620.841 537.674 620.844 538.69L620.842 538.689Z" fill="#A481C1"/>
<path d="M645.292 502.164V510.902H639.121V502.164H645.292Z" fill="white"/>
<path d="M656.256 502.164V510.902H650.085V502.164H656.256Z" fill="white"/>
<path d="M645.292 516.562V525.301H639.121V516.562H645.292Z" fill="white"/>
<path d="M656.256 516.562V525.301H650.085V516.562H656.256Z" fill="white"/>
<path d="M595.267 526.654C595.216 526.654 595.159 526.66 595.108 526.664C593.163 526.803 591.266 527.331 589.53 528.219C587.795 529.107 586.255 530.335 585.004 531.83C583.062 534.126 581.887 536.973 581.643 539.97C581.617 540.332 581.599 540.684 581.599 541.036V541.04C581.591 541.927 581.664 542.813 581.818 543.687C581.933 544.356 582.097 545.015 582.309 545.659C582.833 547.353 582.918 549.152 582.556 550.887C582.194 552.622 581.396 554.237 580.238 555.579C579.582 556.358 578.986 557.184 578.454 558.051C577.055 560.311 576.11 562.821 575.669 565.442C575.543 566.163 575.458 566.892 575.416 567.623C575.376 568.236 575.363 568.856 575.381 569.478C575.544 574.728 577.683 579.723 581.37 583.464C585.057 587.206 590.02 589.417 595.267 589.658C595.494 589.669 595.724 589.675 595.955 589.676V526.635C595.725 526.636 595.496 526.643 595.267 526.655V526.654Z" fill="#00BCD4"/>
<path d="M616.864 568.207C616.84 567.459 616.774 566.713 616.666 565.973C616.289 563.311 615.392 560.749 614.028 558.433C613.732 557.927 613.413 557.433 613.073 556.955C612.705 556.432 612.312 555.927 611.895 555.442C610.754 554.137 609.97 552.559 609.621 550.861C609.273 549.163 609.37 547.403 609.905 545.754C610.049 545.33 610.172 544.898 610.271 544.461C610.488 543.54 610.614 542.6 610.646 541.655C610.65 541.487 610.655 541.324 610.655 541.156C610.658 538.488 609.922 535.87 608.526 533.595C608.226 533.096 607.893 532.617 607.529 532.161C606.262 530.55 604.666 529.226 602.849 528.277C601.032 527.328 599.034 526.775 596.987 526.655C596.643 526.636 596.299 526.629 595.955 526.635V589.676L596.05 589.679C596.363 589.679 596.677 589.675 596.986 589.662C602.336 589.439 607.392 587.158 611.099 583.294C614.806 579.43 616.877 574.283 616.878 568.929C616.878 568.688 616.873 568.447 616.863 568.207H616.864Z" fill="#00A0B5"/>
<path d="M596.985 526.654V607.545H595.267V526.655C595.839 526.621 596.414 526.621 596.987 526.655L596.985 526.654Z" fill="#26221E" fill-opacity="0.87"/>
<path d="M501.481 479.715C501.31 479.715 501.143 479.721 500.975 479.73C498.09 479.839 495.333 480.952 493.182 482.879C492.881 483.144 492.594 483.425 492.322 483.721C491.279 484.842 490.454 486.148 489.891 487.573C489.719 487.987 489.575 488.412 489.461 488.845C489.154 489.936 488.999 491.064 489 492.198C488.999 494.137 489.45 496.05 490.318 497.784C491.186 499.518 492.447 501.025 494 502.186C493.368 502.658 492.783 503.19 492.254 503.775C491.982 504.072 491.724 504.38 491.481 504.701C489.503 507.351 488.657 510.679 489.129 513.952C489.601 517.226 491.352 520.179 493.998 522.163C493.272 522.709 492.606 523.331 492.013 524.02C491.751 524.324 491.503 524.647 491.27 524.977C490.055 526.689 489.301 528.685 489.079 530.772C489.026 531.23 489 531.69 489 532.151C489 535.373 490.247 538.47 492.479 540.794C494.711 543.118 497.755 544.489 500.975 544.619C501.143 544.627 501.31 544.633 501.481 544.633L501.536 544.63V479.718L501.481 479.715Z" fill="#FFA88C"/>
<path d="M513.964 512.174C513.968 509.621 513.184 507.129 511.719 505.039C511.49 504.706 511.243 504.387 510.98 504.081C510.382 503.376 509.706 502.74 508.966 502.186C510.914 500.726 512.392 498.728 513.22 496.439C514.048 494.149 514.188 491.668 513.624 489.3C513.52 488.856 513.39 488.418 513.237 487.989V487.985C512.715 486.532 511.926 485.19 510.912 484.027C510.652 483.721 510.375 483.429 510.082 483.154C507.939 481.109 505.136 479.897 502.178 479.737C501.965 479.725 501.751 479.719 501.537 479.718V544.63C501.754 544.629 501.969 544.621 502.178 544.61C505.363 544.433 508.359 543.043 510.551 540.726C512.743 538.409 513.964 535.34 513.964 532.151C513.964 531.862 513.955 531.579 513.933 531.299C513.792 529.165 513.101 527.104 511.926 525.317C511.705 524.976 511.465 524.648 511.209 524.333C510.554 523.519 509.799 522.789 508.964 522.161C510.517 521 511.778 519.493 512.646 517.759C513.514 516.025 513.965 514.113 513.964 512.174Z" fill="#FFA88C"/>
<path d="M501.77 533.775L500.976 532.98L492.014 524.02C491.752 524.324 491.504 524.646 491.271 524.977L500.976 534.683L501.77 535.477L501.785 535.463V533.761L501.77 533.775Z" fill="#FFA88C"/>
<path d="M511.925 525.317C511.704 524.977 511.465 524.648 511.208 524.333L502.178 533.366L501.784 533.76V535.463L502.178 535.069L511.925 525.317ZM513.933 531.299C513.899 530.793 513.834 530.289 513.739 529.791L502.179 541.352L501.784 541.745V543.448L502.178 543.054L513.933 531.299Z" fill="#26221E" fill-opacity="0.87"/>
<path d="M501.771 491.466L500.976 490.672L493.183 482.88C492.882 483.145 492.595 483.426 492.323 483.721L500.976 492.374L501.771 493.169L501.785 493.154V491.453L501.771 491.466ZM510.912 484.027C510.652 483.721 510.375 483.429 510.083 483.154L502.179 491.058L501.785 491.451V493.154L502.179 492.76L510.912 484.027Z" fill="#26221E" fill-opacity="0.87"/>
<path d="M513.624 489.301C513.519 488.857 513.39 488.419 513.236 487.989L502.178 499.048L501.784 499.441V501.139L502.178 500.746L513.624 489.301Z" fill="#FFA88C"/>
<path d="M501.77 499.457L500.975 498.661L489.891 487.573C489.719 487.987 489.576 488.412 489.461 488.845L501.77 501.154L501.784 501.139V499.443L501.77 499.457Z" fill="#26221E" fill-opacity="0.87"/>
<path d="M501.771 513.291L492.255 503.776C491.984 504.072 491.726 504.381 491.482 504.701L501.771 514.989L501.786 514.975V513.278L501.771 513.291Z" fill="#FFA88C"/>
<path d="M511.72 505.039C511.49 504.707 511.243 504.387 510.979 504.081L502.178 512.883L501.784 513.276V514.975L502.178 514.581L511.72 505.039Z" fill="#26221E" fill-opacity="0.87"/>
<path d="M502.178 479.737V565.391H500.976V479.728C501.376 479.707 501.778 479.71 502.178 479.737Z" fill="#26221E" fill-opacity="0.87"/>
<path d="M533.106 512.932L533.052 512.931C532.883 512.931 532.714 512.935 532.545 512.944C529.659 513.053 526.903 514.167 524.752 516.094C524.451 516.359 524.164 516.641 523.892 516.937C522.848 518.057 522.024 519.364 521.461 520.788C521.289 521.201 521.145 521.626 521.03 522.059C520.724 523.15 520.57 524.278 520.571 525.412C520.57 527.351 521.021 529.263 521.889 530.997C522.757 532.731 524.017 534.239 525.57 535.4C524.938 535.873 524.354 536.405 523.825 536.99C523.553 537.286 523.295 537.595 523.051 537.915C521.438 540.072 520.568 542.694 520.571 545.388V545.506C520.619 548.085 521.68 550.541 523.525 552.344C525.37 554.146 527.851 555.149 530.43 555.136H533.106V512.932Z" fill="#FFA88C"/>
<path d="M545.534 545.388C545.538 542.836 544.754 540.344 543.289 538.254C543.06 537.922 542.814 537.601 542.551 537.295C541.952 536.59 541.276 535.954 540.535 535.4C542.484 533.94 543.963 531.942 544.79 529.653C545.618 527.364 545.758 524.882 545.194 522.514C545.09 522.071 544.961 521.633 544.808 521.205V521.2C544.286 519.747 543.498 518.405 542.483 517.241C542.223 516.935 541.945 516.644 541.652 516.37C539.51 514.325 536.707 513.113 533.75 512.953C533.536 512.94 533.322 512.934 533.108 512.932V555.136H535.675C538.255 555.149 540.735 554.146 542.58 552.344C544.425 550.541 545.486 548.085 545.534 545.506V545.388Z" fill="#FFA88C"/>
<path d="M533.34 524.681L532.546 523.885L524.753 516.094C524.451 516.359 524.164 516.641 523.893 516.937L532.546 525.588L533.34 526.383L533.355 526.368V524.667L533.34 524.681ZM542.483 517.241C542.223 516.935 541.945 516.644 541.652 516.37L533.748 524.273L533.355 524.667V526.369L533.748 525.976L542.483 517.241Z" fill="#26221E" fill-opacity="0.87"/>
<path d="M545.194 522.514C545.09 522.071 544.961 521.634 544.808 521.205L533.748 532.263L533.354 532.657V534.355L533.748 533.961L545.194 522.514Z" fill="#FFA88C"/>
<path d="M533.341 532.671L532.547 531.875L521.462 520.786C521.291 521.201 521.147 521.626 521.032 522.059L533.341 534.368L533.356 534.353V532.656L533.341 532.671Z" fill="#26221E" fill-opacity="0.87"/>
<path d="M533.75 512.951V576.33H532.547V512.944C532.948 512.922 533.349 512.924 533.75 512.951Z" fill="#26221E" fill-opacity="0.87"/>
<path d="M366.228 560.094C365.422 559.019 364.891 557.763 364.683 556.436C364.474 555.109 364.595 553.751 365.033 552.481C365.711 550.694 365.86 548.749 365.462 546.879C365.064 545.009 364.136 543.293 362.79 541.936C362.542 541.686 362.346 541.389 362.213 541.063C362.08 540.736 362.012 540.387 362.014 540.035C362.016 539.682 362.088 539.334 362.224 539.009C362.361 538.684 362.561 538.39 362.811 538.142C364.537 536.397 365.555 534.074 365.668 531.623C365.713 530.292 365.494 528.966 365.025 527.72C364.556 526.474 363.845 525.332 362.934 524.362C362.022 523.391 360.928 522.61 359.714 522.063C358.5 521.516 357.19 521.214 355.86 521.174C353.877 521.141 351.929 521.7 350.266 522.779C348.602 523.858 347.298 525.409 346.52 527.233C345.743 529.057 345.526 531.072 345.899 533.019C346.273 534.967 347.218 536.759 348.615 538.167C349.114 538.666 349.395 539.344 349.395 540.051C349.395 540.757 349.114 541.435 348.615 541.935C347.253 543.306 346.319 545.045 345.928 546.938C345.537 548.831 345.706 550.796 346.414 552.595C346.848 553.835 346.967 555.164 346.758 556.462C346.55 557.76 346.021 558.985 345.22 560.027C343.419 562.565 342.608 565.675 342.94 568.77C343.289 572.035 344.878 575.042 347.377 577.172C349.877 579.302 353.099 580.392 356.378 580.218C359.657 580.045 362.746 578.62 365.006 576.238C367.267 573.856 368.529 570.698 368.531 567.414C368.535 564.795 367.731 562.239 366.228 560.094Z" fill="#A481C1"/>
<path d="M205.728 107.769C204.931 107.193 182.663 91.0443 176.839 76.2937C176.551 75.5637 176.3 74.8193 176.089 74.0634C175.936 73.5273 175.809 72.9839 175.71 72.4352C175.553 71.605 175.469 70.7626 175.459 69.9177V69.7748C175.459 53.6671 188.699 42.2124 205.145 41.9427C192.481 42.2955 182.315 53.7269 182.315 69.7748C182.315 69.82 182.315 69.871 182.319 69.9177C182.324 70.7603 182.388 71.6016 182.511 72.4352C182.587 72.9731 182.683 73.5182 182.801 74.0649C182.96 74.8025 183.157 75.5459 183.385 76.2937C187.88 91.0239 205.061 107.146 205.728 107.769Z" fill="#FFA88C"/>
<path d="M236.041 69.7748V69.9177C236.03 70.7627 235.944 71.6051 235.785 72.4352C235.689 72.9731 235.562 73.5182 235.406 74.0649C235.194 74.8203 234.944 75.5642 234.655 76.2937C228.837 91.0443 206.565 107.193 205.771 107.769C206.434 107.146 223.616 91.0239 228.111 76.2937C228.342 75.5459 228.54 74.8025 228.694 74.0634C228.817 73.5182 228.913 72.9731 228.989 72.4352C229.112 71.6016 229.177 70.7603 229.181 69.9177C229.186 69.871 229.186 69.82 229.186 69.7748C229.186 53.7254 219.018 42.297 206.351 41.9427C222.801 42.2124 236.041 53.6671 236.041 69.7748Z" fill="#A481C1"/>
<path d="M229.185 69.7718C229.185 53.4716 218.692 41.9353 205.749 41.9353C213.527 41.9353 219.833 53.4716 219.833 69.7718C219.833 86.0719 205.749 107.783 205.749 107.783C205.749 107.783 229.185 86.0734 229.185 69.7718Z" fill="white"/>
<path d="M205.747 41.9353C192.805 41.9353 182.312 53.4716 182.312 69.7718C182.312 86.0719 205.748 107.783 205.748 107.783C205.748 107.783 191.664 86.0734 191.664 69.7718C191.664 53.4702 197.97 41.9353 205.748 41.9353H205.747Z" fill="#A481C1"/>
<path d="M205.746 41.9353C208.828 41.9353 211.323 53.4716 211.323 69.7718C211.323 86.0719 205.748 107.783 205.748 107.783C205.748 107.783 219.832 86.0734 219.832 69.7718C219.832 53.4702 213.526 41.9353 205.748 41.9353H205.746Z" fill="#00A0B5"/>
<path d="M205.747 41.9353C197.97 41.9353 191.664 53.4716 191.664 69.7718C191.664 86.0719 205.748 107.783 205.748 107.783C205.748 107.783 200.171 86.0734 200.171 69.7718C200.171 53.4702 202.668 41.9353 205.748 41.9353H205.747Z" fill="white"/>
<path d="M205.748 41.9353C202.669 41.9353 200.172 53.4716 200.172 69.7718C200.172 86.0719 205.749 107.783 205.749 107.783C205.749 107.783 211.325 86.0734 211.325 69.7718C211.325 53.4702 208.829 41.9353 205.749 41.9353H205.748Z" fill="#FFA88C"/>
<path d="M199.282 121.362H212.396V128.035C212.396 128.892 212.055 129.715 211.449 130.321C210.843 130.927 210.021 131.268 209.164 131.268H202.515C201.658 131.268 200.836 130.928 200.229 130.321C199.623 129.715 199.282 128.893 199.282 128.035V121.362Z" fill="#26221E" fill-opacity="0.87"/>
<path d="M177.486 74.4789L201.684 125.525M234.011 74.4789L209.814 125.525M203.152 123.216C203.362 122.586 187.415 75.8754 187.415 75.8754M208.454 123.216C208.244 122.586 224.191 75.8754 224.191 75.8754M205.839 123.216V74.9556" stroke="#26221E" stroke-opacity="0.87" stroke-width="0.312" stroke-miterlimit="10"/>
<path d="M235.407 74.0634C235.195 74.8192 234.944 75.5637 234.655 76.2937H176.841C176.552 75.5636 176.302 74.8192 176.09 74.0634H235.407Z" fill="#26221E" fill-opacity="0.87"/>
<path d="M369.276 24.5872C369.276 10.1894 357.604 0 343.206 0C328.809 0 317.137 10.1894 317.137 24.5872C317.137 34.2271 328.822 46.0068 336.546 52.7415H349.867C357.59 46.0068 369.276 34.2271 369.276 24.5872Z" fill="#FFA88C"/>
<path d="M363.376 24.5872C363.376 10.1894 354.345 0 343.207 0C332.069 0 323.038 10.1894 323.038 24.5872C323.038 34.2271 332.079 46.0068 338.054 52.7415H348.36C354.335 46.0068 363.374 34.2271 363.374 24.5872H363.376Z" fill="#A481C1"/>
<path d="M355.328 24.5872C355.328 10.1894 349.901 0 343.207 0C336.512 0 331.086 10.1894 331.086 24.5872C331.086 34.2271 336.519 46.0068 340.109 52.7415H346.304C349.895 46.0068 355.328 34.2271 355.328 24.5872Z" fill="#00BCD4"/>
<path d="M348.005 24.5872C348.005 10.1894 345.856 0 343.206 0C340.556 0 338.407 10.1894 338.407 24.5872C338.407 34.2271 340.557 46.0068 341.979 52.7415H344.432C345.853 46.0068 348.003 34.2271 348.003 24.5872H348.005Z" fill="white"/>
<path d="M339.877 63.7252H346.534V67.1144C346.534 67.5495 346.361 67.9668 346.054 68.2745C345.746 68.5823 345.329 68.7554 344.894 68.7558H341.518C341.083 68.7558 340.665 68.5829 340.357 68.275C340.05 67.9672 339.877 67.5497 339.877 67.1144V63.7252ZM336.546 52.7414H349.866C350.661 52.0475 351.499 51.2982 352.364 50.5052H334.049C334.871 51.2615 335.704 52.0069 336.546 52.7414Z" fill="#26221E" fill-opacity="0.87"/>
<path d="M336.394 51.6235L340.902 65.6161M350.022 51.6235L345.513 65.6161" stroke="#26221E" stroke-opacity="0.87" stroke-width="0.276" stroke-miterlimit="10"/>
<path d="M586.05 272.073C586.05 255.771 572.837 244.237 556.535 244.237C540.234 244.237 527.02 255.771 527.02 272.073C527.02 282.987 540.25 296.325 548.995 303.949H564.076C572.821 296.325 586.051 282.987 586.051 272.073H586.05Z" fill="#FFA88C"/>
<path d="M579.37 272.073C579.37 255.771 569.146 244.237 556.535 244.237C543.925 244.237 533.7 255.771 533.7 272.073C533.7 282.987 543.936 296.325 550.701 303.949H562.369C569.134 296.325 579.37 282.987 579.37 272.073Z" fill="#A481C1"/>
<path d="M570.258 272.073C570.258 255.771 564.114 244.237 556.535 244.237C548.955 244.237 542.812 255.771 542.812 272.073C542.812 282.987 548.964 296.325 553.03 303.949H560.041C564.108 296.325 570.26 282.987 570.26 272.073H570.258Z" fill="white"/>
<path d="M561.967 272.073C561.967 255.771 559.534 244.237 556.534 244.237C553.533 244.237 551.102 255.771 551.102 272.073C551.102 282.987 553.536 296.325 555.147 303.949H557.922C559.532 296.325 561.967 282.987 561.967 272.073Z" fill="#FFA88C"/>
<path d="M528.474 278.853C532.143 288.098 542 297.851 548.994 303.949H564.075C571.069 297.851 580.927 288.098 584.594 278.853H528.474Z" fill="#00BCD4"/>
<path d="M552.767 316.386H560.305V322.08H552.767V316.386ZM548.995 303.949H564.076C564.977 303.163 565.928 302.316 566.903 301.418H546.167C547.098 302.274 548.04 303.118 548.993 303.949H548.995Z" fill="#26221E" fill-opacity="0.87"/>
<path d="M548.821 302.684L553.926 318.526M564.251 302.684L559.146 318.526" stroke="#26221E" stroke-opacity="0.87" stroke-width="0.312" stroke-miterlimit="10"/>
<path d="M85.53 255.024C85.4795 257.332 84.9948 259.61 84.1015 261.739C83.6906 262.782 83.2214 263.801 82.6962 264.792C81.9783 266.143 81.1905 267.456 80.3362 268.725C77.2752 273.137 73.7918 277.241 69.9354 280.978C67.8719 283.02 65.7435 284.995 63.5536 286.901H48.4764C46.287 284.995 44.1591 283.02 42.096 280.978C38.2392 277.241 34.7553 273.137 31.6938 268.725C30.8394 267.456 30.0517 266.143 29.3338 264.792C28.8084 263.802 28.3392 262.782 27.9285 261.739C27.0344 259.61 26.5488 257.332 26.4971 255.024C26.4971 254.868 26.5087 254.713 26.5087 254.557C27.1845 253.164 28.2485 251.995 29.5726 251.192C30.8967 250.389 32.4246 249.986 33.9726 250.03C35.5206 250.075 37.0227 250.566 38.2983 251.444C39.5739 252.322 40.5688 253.55 41.1631 254.98C41.7729 253.513 42.8037 252.259 44.1254 251.377C45.4471 250.495 47.0005 250.024 48.5894 250.024C50.1784 250.024 51.7317 250.495 53.0534 251.377C54.3751 252.259 55.4059 253.513 56.0157 254.98C56.6258 253.513 57.6566 252.26 58.9781 251.378C60.2996 250.497 61.8527 250.026 63.4413 250.026C65.0299 250.026 66.583 250.497 67.9045 251.378C69.226 252.26 70.2568 253.513 70.8669 254.98C71.4609 253.55 72.4553 252.322 73.7306 251.445C75.0058 250.567 76.5076 250.076 78.0552 250.031C79.6028 249.986 81.1304 250.39 82.4541 251.193C83.7779 251.996 84.8414 253.164 85.5169 254.557C85.5213 254.713 85.53 254.868 85.53 255.024Z" fill="white"/>
<path d="M84.0997 261.739C83.6888 262.782 83.2197 263.802 82.6944 264.792C81.9765 266.143 81.1887 267.456 80.3344 268.725C77.2734 273.137 73.79 277.241 69.9336 280.978C67.8701 283.02 65.7417 284.995 63.5518 286.901H48.4747C46.2852 284.995 44.1573 283.02 42.0943 280.978C38.2374 277.241 34.7536 273.137 31.692 268.725C30.8376 267.456 30.0499 266.143 29.332 264.792C28.8066 263.802 28.3374 262.783 27.9268 261.739C28.6729 260.949 29.5728 260.32 30.571 259.891C31.5692 259.462 32.6447 259.241 33.7314 259.242C35.3207 259.243 36.8744 259.714 38.1966 260.596C39.5188 261.478 40.5504 262.731 41.1613 264.199C41.7706 262.731 42.8012 261.476 44.123 260.594C45.4448 259.712 46.9984 259.241 48.5876 259.241C50.1769 259.241 51.7305 259.712 53.0523 260.594C54.374 261.476 55.4046 262.731 56.0139 264.199C56.6235 262.731 57.6541 261.477 58.9757 260.595C60.2973 259.713 61.8506 259.242 63.4395 259.242C65.0285 259.242 66.5818 259.713 67.9034 260.595C69.225 261.477 70.2556 262.731 70.8651 264.199C71.3765 262.963 72.1887 261.874 73.2279 261.032C74.2671 260.189 75.5004 259.62 76.8155 259.376C78.1307 259.131 79.4861 259.22 80.7585 259.632C82.0309 260.045 83.1784 260.77 84.0997 261.739Z" fill="#00BCD4"/>
<path d="M80.3357 268.725C77.2747 273.137 73.7914 277.241 69.935 280.978C67.8715 283.02 65.7431 284.995 63.5531 286.901H48.476C46.2865 284.995 44.1586 283.02 42.0956 280.978C38.2387 277.241 34.7549 273.137 31.6934 268.725C32.3593 268.548 33.0453 268.459 33.7342 268.459C35.3234 268.46 36.8769 268.932 38.1989 269.814C39.5208 270.696 40.552 271.95 41.1627 273.417C41.772 271.949 42.8026 270.695 44.1243 269.813C45.4461 268.93 46.9997 268.459 48.589 268.459C50.1782 268.459 51.7318 268.93 53.0536 269.813C54.3754 270.695 55.406 271.949 56.0153 273.417C56.6248 271.95 57.6554 270.696 58.977 269.814C60.2986 268.932 61.8519 268.461 63.4409 268.461C65.0298 268.461 66.5831 268.932 67.9047 269.814C69.2263 270.696 70.2569 271.95 70.8664 273.417C71.6111 271.623 72.9805 270.158 74.7214 269.295C76.4622 268.433 78.4566 268.231 80.3357 268.725Z" fill="#FFA88C"/>
<path d="M69.9351 280.978C67.8716 283.02 65.7432 284.995 63.5532 286.901H48.4761C46.2866 284.995 44.1587 283.02 42.0957 280.978C42.9371 279.826 44.07 278.918 45.378 278.348C46.686 277.779 48.122 277.567 49.5388 277.735C50.9557 277.903 52.3022 278.445 53.4403 279.306C54.5785 280.166 55.4672 281.314 56.0154 282.631C56.5636 281.314 57.4523 280.166 58.5904 279.306C59.7286 278.445 61.0751 277.903 62.4919 277.735C63.9087 277.567 65.3448 277.779 66.6528 278.348C67.9608 278.918 69.0936 279.826 69.9351 280.978Z" fill="#00A0B5"/>
<path d="M33.7356 250.027C35.3245 250.027 36.8778 250.498 38.1993 251.38C39.5209 252.262 40.5515 253.516 41.1612 254.983C41.7708 253.515 42.8016 252.261 44.1235 251.379C45.4454 250.496 46.999 250.026 48.5883 250.026C50.1775 250.026 51.7312 250.496 53.053 251.379C54.3749 252.261 55.4057 253.515 56.0153 254.983C56.6254 253.516 57.6562 252.263 58.9777 251.381C60.2992 250.5 61.8523 250.029 63.4409 250.029C65.0295 250.029 66.5826 250.5 67.9041 251.381C69.2256 252.263 70.2564 253.516 70.8665 254.983C71.4598 253.552 72.4539 252.324 73.7291 251.445C75.0042 250.567 76.5061 250.075 78.054 250.03C79.602 249.985 81.13 250.388 82.4541 251.191C83.7783 251.994 84.8423 253.162 85.5179 254.556C85.2672 238.503 72.158 227.187 56.0138 227.187C39.8697 227.187 26.7619 238.503 26.5098 254.556C27.1675 253.199 28.1941 252.054 29.472 251.253C30.7499 250.452 32.2275 250.027 33.7356 250.027Z" fill="#FFA88C"/>
<path d="M52.2465 299.337H59.7829V303.172C59.7829 303.665 59.5873 304.137 59.239 304.486C58.8908 304.834 58.4184 305.03 57.9258 305.031H54.1022C53.6095 305.03 53.1372 304.834 52.7889 304.486C52.4407 304.137 52.2451 303.665 52.2451 303.172L52.2465 299.337ZM48.4754 286.9H63.5554C64.5091 286.068 65.4518 285.224 66.3834 284.368H45.6475C46.6241 285.266 47.5746 286.114 48.4754 286.9Z" fill="#26221E" fill-opacity="0.87"/>
<path d="M48.3008 285.634L53.4071 301.475M63.7321 285.634L58.6258 301.475" stroke="#26221E" stroke-opacity="0.87" stroke-width="0.312" stroke-miterlimit="10"/>
<path d="M288.982 22.8933C287.493 22.8927 286.032 23.2968 284.755 24.0624C283.937 22.2429 282.636 20.6827 280.993 19.5514C279.35 18.4202 277.428 17.7614 275.437 17.6467C273.445 17.532 271.46 17.9658 269.698 18.9009C267.936 19.8361 266.464 21.2366 265.443 22.9502C263.749 23.1377 262.155 23.8439 260.878 24.9721C259.6 26.1004 258.703 27.5956 258.308 29.2533H297.026C296.596 27.4427 295.568 25.83 294.108 24.6759C292.648 23.5219 290.842 22.8938 288.981 22.8933H288.982ZM100.967 119.63C102.994 119.627 104.962 120.309 106.553 121.566C107.857 119.603 109.724 118.079 111.909 117.195C114.094 116.31 116.495 116.106 118.797 116.61C121.133 114.203 123.978 112.35 127.123 111.187C130.269 110.025 133.635 109.583 136.974 109.893C140.314 110.203 143.541 111.258 146.419 112.98C149.296 114.702 151.751 117.047 153.603 119.843C155.071 118.348 156.914 117.275 158.938 116.736C160.962 116.197 163.094 116.21 165.111 116.776C167.128 117.342 168.956 118.438 170.405 119.952C171.854 121.465 172.869 123.339 173.346 125.379H92.5527C93.214 123.685 94.371 122.23 95.8724 121.205C97.3738 120.179 99.1483 119.63 100.967 119.63ZM548.061 160.724C546.077 160.722 544.134 161.291 542.465 162.366C541.576 160.585 540.319 159.014 538.779 157.753C537.239 156.493 535.449 155.573 533.528 155.053C531.607 154.533 529.597 154.426 527.632 154.738C525.666 155.05 523.789 155.774 522.123 156.863C520.485 155.096 518.455 153.737 516.197 152.895C513.94 152.053 511.516 151.752 509.121 152.016C506.725 152.279 504.425 153.1 502.404 154.413C500.383 155.725 498.698 157.493 497.483 159.574C494.456 159.017 491.332 159.675 488.788 161.407C486.243 163.138 484.483 165.802 483.89 168.822H558.172C557.658 166.524 556.376 164.47 554.538 162.998C552.7 161.526 550.416 160.724 548.061 160.723V160.724ZM405.136 94.4743C403.67 94.4729 402.212 94.6921 400.811 95.1244C398.852 93.3629 396.474 92.1328 393.904 91.5514C391.335 90.97 388.659 91.0567 386.133 91.8033C383.606 92.5499 381.313 93.9314 379.472 95.816C377.631 97.7007 376.304 100.026 375.617 102.569H418.226C417.012 100.137 415.144 98.0909 412.831 96.6611C410.519 95.2313 407.854 94.474 405.136 94.4743ZM107.381 187.406C102.554 187.4 97.7897 188.491 93.4478 190.599C91.4211 187.972 88.7024 185.963 85.5969 184.796C82.4914 183.63 79.1221 183.352 75.8674 183.994C72.6128 184.636 69.6016 186.173 67.1722 188.432C64.7427 190.691 62.9912 193.583 62.1143 196.782H129.988C127.025 193.806 123.502 191.445 119.622 189.836C115.742 188.226 111.581 187.401 107.381 187.406ZM152.122 190.218C149.459 190.217 146.834 190.852 144.466 192.071C142.098 193.29 140.056 195.057 138.51 197.225H165.734C164.188 195.057 162.146 193.29 159.778 192.071C157.41 190.852 154.785 190.217 152.122 190.218Z" fill="#00BCD4"/>
</svg>
