<svg width="520" height="235" viewBox="0 0 520 235" fill="none" xmlns="http://www.w3.org/2000/svg">
<path d="M453.541 90.4818C424.825 62.2596 369.75 80.6065 341.481 51.9385C332.386 42.7138 327.771 29.9806 319.519 19.9957C307.015 4.86858 285.967 -2.73336 266.635 0.895836C247.304 4.52503 230.478 19.2355 224.358 37.8566C221.386 46.9022 220.66 56.9455 215.193 64.7521C209.719 72.566 200.349 76.7763 191.037 78.9473C181.725 81.1182 172.072 81.6153 162.794 83.9251C137.852 90.1345 116.899 110.254 109.756 134.854C102.612 159.455 109.656 182.498 127.421 201.01L426.571 202C441.61 188.507 459.357 166.147 465.209 146.846C471.064 127.541 467.953 104.64 453.541 90.4818Z" fill="#00A0B5"/>
<path d="M453.541 90.4818C424.825 62.2596 369.75 80.6065 341.481 51.9385C332.386 42.7138 327.771 29.9806 319.519 19.9957C307.015 4.86858 285.967 -2.73336 266.635 0.895836C247.304 4.52503 230.478 19.2355 224.358 37.8566C221.386 46.9022 220.66 56.9455 215.193 64.7521C209.719 72.566 200.349 76.7763 191.037 78.9473C181.725 81.1182 172.072 81.6153 162.794 83.9251C137.852 90.1345 116.899 110.254 109.756 134.854C102.612 159.455 109.656 182.498 127.421 201.01L426.571 202C441.61 188.507 459.357 166.147 465.209 146.846C471.064 127.541 467.953 104.64 453.541 90.4818Z" fill="white" fill-opacity="0.88"/>
<path d="M78.7964 221.181C73.0179 219.19 68.4501 214.656 64.9555 209.653C61.4609 204.65 58.8532 199.094 55.638 193.91C52.4227 188.725 48.4492 183.784 43.0742 180.878C53.0081 177.675 64.0197 177.529 73.8206 181.112C83.6215 184.695 92.0875 192.118 96.305 201.646C97.6133 204.601 98.5135 207.773 98.7663 210.998C98.9126 212.882 98.8328 214.895 97.9459 216.607C96.1897 220.004 91.8214 220.946 88.4066 221.685C85.2136 222.38 81.8964 222.251 78.7964 221.181Z" fill="#F7C443"/>
<path d="M55.6685 197.073C55.5577 197.073 55.4468 197.015 55.3847 196.913C51.4466 190.561 47.4952 186.46 42.9451 184.001C42.7855 183.912 42.7234 183.713 42.8121 183.55C42.9008 183.39 43.1003 183.329 43.2644 183.417C47.921 185.934 51.9522 190.11 55.9524 196.564C56.0499 196.719 56.0011 196.922 55.8459 197.019C55.7883 197.055 55.7262 197.073 55.6685 197.073ZM98.7969 214.165C98.6239 214.165 98.4776 214.032 98.4643 213.86C98.2248 210.834 97.4088 207.724 96.0296 204.615C91.9318 195.361 83.8073 187.938 73.7359 184.258C73.6936 184.244 73.6546 184.221 73.6212 184.192C73.5877 184.163 73.5604 184.127 73.541 184.087C73.5215 184.048 73.5103 184.004 73.508 183.96C73.5056 183.916 73.5122 183.871 73.5273 183.83C73.5425 183.788 73.5658 183.75 73.596 183.717C73.6262 183.685 73.6627 183.658 73.7032 183.64C73.7437 183.622 73.7875 183.612 73.832 183.611C73.8764 183.61 73.9207 183.618 73.962 183.634C84.202 187.376 92.464 194.927 96.6371 204.345C98.043 207.521 98.8811 210.706 99.125 213.807C99.1383 213.988 99.0009 214.147 98.819 214.165H98.7969Z" fill="#473159"/>
<path d="M93.586 218.27C93.4397 218.27 93.3066 218.177 93.2667 218.031C90.7477 209.326 85.5679 201.288 78.6718 195.392C71.7801 189.495 63.0214 185.611 54.0144 184.457C53.8326 184.434 53.7039 184.266 53.7261 184.085C53.7483 183.904 53.9168 183.775 54.0986 183.797C63.2343 184.97 72.1128 188.907 79.1064 194.887C86.0956 200.868 91.3509 209.021 93.9053 217.85C93.9541 218.027 93.8521 218.208 93.6791 218.261C93.6481 218.266 93.6171 218.27 93.586 218.27Z" fill="#303030" fill-opacity="0.5"/>
<path d="M60.8705 192.883C60.7286 192.883 60.5956 192.791 60.5512 192.645C60.498 192.468 60.6 192.286 60.7774 192.233C65.249 190.927 69.9655 190.686 74.5474 191.53C74.7293 191.565 74.849 191.738 74.8135 191.915C74.7825 192.096 74.6095 192.215 74.4277 192.18C69.9487 191.358 65.339 191.595 60.9681 192.87C60.9326 192.879 60.9016 192.883 60.8705 192.883ZM85.1288 202.213C85.1066 202.213 85.0845 202.213 85.0667 202.208C85.0238 202.2 84.9829 202.184 84.9464 202.159C84.91 202.135 84.8786 202.104 84.8543 202.068C84.8299 202.032 84.8131 201.991 84.8046 201.949C84.7962 201.906 84.7963 201.862 84.8051 201.819C85.5812 197.842 84.4148 193.467 81.7628 190.397C81.7341 190.364 81.7122 190.326 81.6984 190.284C81.6846 190.243 81.6792 190.199 81.6825 190.156C81.6858 190.112 81.6978 190.069 81.7176 190.03C81.7375 189.991 81.7649 189.957 81.7983 189.928C81.9358 189.809 82.1487 189.822 82.2684 189.964C85.049 193.184 86.273 197.771 85.4614 201.943C85.426 202.102 85.2885 202.213 85.1288 202.213ZM89.9095 210.188C89.8696 210.188 89.8297 210.179 89.7898 210.166C84.7031 208.233 78.9822 207.826 73.6738 209.021C73.5873 209.04 73.4967 209.024 73.4219 208.977C73.347 208.93 73.294 208.855 73.2746 208.768C73.2552 208.682 73.271 208.592 73.3184 208.517C73.3658 208.442 73.441 208.39 73.5274 208.37C78.96 207.149 84.8228 207.565 90.0248 209.542C90.1978 209.609 90.282 209.799 90.2155 209.972C90.1667 210.109 90.0426 210.188 89.9095 210.188Z" fill="#303030" fill-opacity="0.5"/>
<path d="M456.654 154.956C471.346 139.027 498.221 141.402 514.869 127.521C511.108 135.612 511.077 144.844 509.822 153.678C507.534 169.753 500.58 185.589 488.3 196.245C483.089 200.771 476.898 204.181 470.295 206.207C464.361 208.025 445.935 207.645 443.181 201.063C442.121 198.528 443.136 192.649 443.602 189.955C444.329 185.788 445.074 181.617 446.037 177.498C447.735 170.204 450.294 162.883 454.977 156.924C455.51 156.248 456.068 155.593 456.654 154.956Z" fill="#FFE5A3"/>
<path d="M446.963 203.168C446.937 203.168 446.91 203.164 446.884 203.159C446.706 203.115 446.595 202.934 446.64 202.757C448.081 196.94 449.571 190.928 452.737 185.664C457.891 177.109 466.84 171.619 474.734 166.78C482.557 161.985 491.422 156.548 496.487 148.099C496.58 147.94 496.784 147.892 496.943 147.984C497.103 148.077 497.152 148.281 497.059 148.44C491.914 157.031 482.974 162.511 475.084 167.346C467.253 172.146 458.379 177.587 453.31 186.005C450.192 191.18 448.715 197.148 447.287 202.912C447.252 203.071 447.114 203.168 446.963 203.168Z" fill="#303030" fill-opacity="0.5"/>
<path d="M483.727 166.74C481.35 166.74 478.978 166.479 476.658 166.223C476.477 166.205 476.344 166.037 476.366 165.856C476.388 165.674 476.556 165.537 476.734 165.564C480.286 165.953 483.958 166.36 487.541 165.802C491.009 165.267 494.296 163.838 497.471 162.463C497.552 162.427 497.644 162.426 497.726 162.458C497.809 162.491 497.875 162.554 497.91 162.635C497.945 162.716 497.947 162.808 497.914 162.89C497.882 162.972 497.818 163.038 497.737 163.073C494.522 164.467 491.2 165.909 487.643 166.462C486.34 166.661 485.031 166.74 483.727 166.74ZM465.558 173.141C465.381 173.141 465.234 173.004 465.225 172.827C464.857 165.913 466.862 158.99 470.871 153.332C470.977 153.182 471.186 153.147 471.332 153.253C471.483 153.359 471.518 153.567 471.412 153.713C467.492 159.247 465.527 166.019 465.891 172.787C465.9 172.969 465.758 173.128 465.576 173.137C465.571 173.141 465.567 173.141 465.558 173.141ZM470.609 189.053C464.968 189.053 459.354 187.995 454.081 185.912C454 185.879 453.934 185.816 453.9 185.735C453.865 185.655 453.863 185.564 453.895 185.483C453.961 185.315 454.156 185.226 454.325 185.297C461.635 188.183 469.585 189.073 477.355 187.876C477.532 187.849 477.705 187.973 477.736 188.155C477.763 188.336 477.638 188.504 477.457 188.535C475.186 188.88 472.893 189.053 470.609 189.053Z" fill="#303030" fill-opacity="0.5"/>
<path d="M452.193 159.64C452.13 159.641 452.069 159.623 452.016 159.59C451.964 159.557 451.921 159.51 451.894 159.455C451.866 159.399 451.856 159.336 451.862 159.275C451.869 159.213 451.893 159.154 451.931 159.105C452.472 158.42 453.04 157.747 453.621 157.119C461.497 148.582 473.027 145.206 484.181 141.946C493.986 139.08 504.129 136.112 511.867 129.658C512.009 129.538 512.218 129.56 512.337 129.697C512.457 129.839 512.435 130.047 512.297 130.166C504.452 136.709 494.243 139.695 484.372 142.583C473.307 145.821 461.865 149.165 454.113 157.57C453.536 158.198 452.982 158.847 452.454 159.517C452.392 159.601 452.29 159.64 452.193 159.64ZM458.783 209.901C451.159 209.901 442.028 208.207 440.09 203.575C440.056 203.494 440.056 203.403 440.089 203.322C440.122 203.241 440.187 203.176 440.268 203.142C440.436 203.071 440.631 203.15 440.702 203.319C443.363 209.68 461.43 210.109 467.409 208.273C473.968 206.26 480.15 202.841 485.29 198.377C496.603 188.557 504.208 173.513 506.701 156.013C506.727 155.832 506.896 155.699 507.078 155.73C507.259 155.757 507.388 155.925 507.362 156.106C504.847 173.765 497.161 188.955 485.729 198.877C480.518 203.398 474.251 206.866 467.604 208.905C465.595 209.529 462.353 209.901 458.783 209.901Z" fill="#473159"/>
<path d="M474.823 221.778C481.112 221.053 486.753 217.487 491.41 213.205C496.066 208.923 499.955 203.885 504.368 199.36C508.781 194.834 513.916 190.72 520.001 188.982C510.67 183.523 499.561 180.918 488.842 182.355C478.123 183.793 467.892 189.415 461.488 198.108C459.501 200.802 457.883 203.814 456.898 207.021C456.326 208.892 455.958 210.949 456.468 212.878C457.479 216.709 461.692 218.637 464.978 220.146C468.06 221.557 471.449 222.167 474.823 221.778Z" fill="#F7C443"/>
<path d="M501.587 202.076C501.521 202.076 501.457 202.056 501.403 202.02C501.349 201.984 501.306 201.933 501.281 201.873C501.256 201.813 501.249 201.747 501.262 201.683C501.274 201.619 501.306 201.56 501.352 201.514C506.846 195.878 511.862 192.556 517.135 191.048C517.308 190.995 517.494 191.101 517.547 191.273C517.596 191.45 517.494 191.632 517.321 191.685C512.164 193.158 507.245 196.427 501.835 201.974C501.76 202.045 501.671 202.076 501.587 202.076ZM454.121 209.742C454.069 209.742 454.017 209.73 453.971 209.706C453.924 209.683 453.884 209.649 453.853 209.608C453.822 209.566 453.801 209.517 453.792 209.466C453.783 209.415 453.786 209.362 453.802 209.312C454.742 206.234 456.303 203.199 458.441 200.302C464.769 191.707 474.823 185.916 486.016 184.417C486.193 184.39 486.366 184.518 486.389 184.7C486.415 184.881 486.287 185.049 486.105 185.071C475.089 186.549 465.199 192.242 458.977 200.695C456.884 203.535 455.358 206.499 454.44 209.507C454.396 209.649 454.263 209.742 454.121 209.742Z" fill="#473159"/>
<path d="M460.587 215.528C460.534 215.528 460.481 215.514 460.428 215.488C460.268 215.399 460.206 215.2 460.295 215.037C464.858 206.68 472.002 199.603 480.415 195.117C488.828 190.627 498.695 188.628 508.195 189.482C508.377 189.499 508.514 189.659 508.496 189.84C508.478 190.021 508.319 190.154 508.137 190.141C498.762 189.296 489.032 191.273 480.73 195.701C472.433 200.129 465.381 207.11 460.88 215.355C460.822 215.466 460.707 215.528 460.587 215.528Z" fill="#303030" fill-opacity="0.5"/>
<path d="M499.382 197.148C499.329 197.148 499.271 197.134 499.222 197.108C495.107 194.847 490.45 193.565 485.754 193.405C485.71 193.404 485.667 193.394 485.627 193.376C485.587 193.358 485.551 193.332 485.521 193.3C485.492 193.268 485.469 193.23 485.454 193.189C485.439 193.148 485.432 193.104 485.434 193.06C485.443 192.879 485.607 192.742 485.78 192.742C490.579 192.91 495.342 194.219 499.546 196.528C499.705 196.617 499.768 196.82 499.679 196.98C499.612 197.081 499.497 197.148 499.382 197.148ZM472.746 201.173H472.737C472.65 201.17 472.566 201.133 472.506 201.069C472.445 201.005 472.412 200.92 472.414 200.833C472.525 196.436 474.791 192.065 478.325 189.437C478.396 189.385 478.485 189.362 478.572 189.374C478.659 189.387 478.738 189.433 478.791 189.504C478.844 189.574 478.867 189.663 478.854 189.75C478.842 189.837 478.795 189.915 478.724 189.968C475.35 192.481 473.185 196.652 473.079 200.85C473.075 201.027 472.924 201.173 472.746 201.173ZM482.88 210.639C482.831 210.639 482.787 210.631 482.738 210.609C477.634 208.215 471.749 207.348 466.17 208.171C465.988 208.198 465.819 208.074 465.793 207.892C465.766 207.711 465.89 207.543 466.072 207.516C471.78 206.68 477.798 207.565 483.017 210.011C483.085 210.043 483.14 210.097 483.174 210.164C483.207 210.231 483.216 210.307 483.2 210.38C483.184 210.453 483.144 210.519 483.086 210.566C483.027 210.613 482.955 210.639 482.88 210.639Z" fill="#303030" fill-opacity="0.5"/>
<path d="M27.3215 103.479C26.3946 100.069 23.5342 96.0785 21.9997 97.7506C20.4653 99.4227 22.6472 106.372 17.9641 105.204C12.0747 103.731 4.86816 90.3987 1.14293 92.3937C-2.58229 94.3887 2.36693 113.706 22.3989 120.868L31.162 112.472C31.162 112.472 28.1198 106.416 27.3215 103.479Z" fill="#EF4A16"/>
<path d="M27.3215 103.479C26.3946 100.069 23.5342 96.0785 21.9997 97.7506C20.4653 99.4227 22.6472 106.372 17.9641 105.204C12.0747 103.731 4.86816 90.3987 1.14293 92.3937C-2.58229 94.3887 2.36693 113.706 22.3989 120.868L31.162 112.472C31.162 112.472 28.1198 106.416 27.3215 103.479Z" fill="white" fill-opacity="0.88"/>
<path d="M491.83 168.103C490.132 175.101 451.531 203.717 451.531 203.717L446.769 181.984L448.48 180.471L467.936 163.272L445.292 136.262L442.467 132.896L429.987 89.1955C429.987 89.1955 447.301 89.8723 455.314 97.2464C466.126 107.19 495.76 151.913 491.83 168.103Z" fill="#B2EBF2"/>
<path d="M491.834 168.434C491.808 168.434 491.781 168.43 491.754 168.426C491.712 168.415 491.672 168.397 491.636 168.371C491.601 168.345 491.571 168.312 491.548 168.275C491.526 168.237 491.511 168.196 491.504 168.153C491.498 168.11 491.5 168.065 491.51 168.023C493.785 158.645 484.53 140.482 478.814 130.494C470.033 115.153 460.037 102.037 455.092 97.4896C455.028 97.4295 454.99 97.3466 454.987 97.2588C454.983 97.171 455.015 97.0855 455.074 97.0207C455.198 96.888 455.407 96.8792 455.544 97.003C466.015 106.633 496.162 151.66 492.158 168.182C492.118 168.333 491.98 168.434 491.834 168.434Z" fill="#00A0B5"/>
<path d="M474.695 163.803C474.695 163.803 465.55 175.919 454.343 180.475C450.436 182.063 452.082 179.976 448.481 180.475L467.936 163.277L445.292 136.266L446.414 130.79L456.179 118.842C457.448 118.351 463.279 139.407 464.335 149.338C465.337 158.782 474.695 163.803 474.695 163.803Z" fill="#A4E0E8"/>
<path d="M100.211 109.38C91.7982 111.45 75.2077 130.197 65.5487 144.919L32.1991 110.827L17.959 121.824C17.959 121.824 52.6923 176.039 68.3914 174.782C85.7935 173.389 110.38 143.424 110.38 143.424L100.211 109.38Z" fill="#FFA88C"/>
<path d="M40.7274 153.337C40.6343 153.337 40.5367 153.297 40.4702 153.217C28.4475 138.761 17.7862 122.169 17.6798 122.005C17.6356 121.935 17.6188 121.851 17.6327 121.769C17.6466 121.688 17.6902 121.614 17.7552 121.563L27.9641 113.684C28.1104 113.574 28.3189 113.6 28.4297 113.742C28.5406 113.888 28.514 114.096 28.3721 114.206L18.4071 121.899C19.7996 124.049 29.8045 139.35 40.9846 152.793C41.0999 152.934 41.0822 153.142 40.9403 153.262C40.8782 153.31 40.8028 153.337 40.7274 153.337Z" fill="#473159"/>
<path d="M66.0154 149.776C65.8691 149.776 65.736 149.679 65.6961 149.533C65.226 147.874 65.0708 146.352 65.2216 144.884C65.226 144.826 65.2482 144.773 65.2793 144.724L71.0134 136.589C71.1199 136.439 71.3239 136.404 71.4747 136.51C71.6255 136.616 71.6609 136.824 71.5545 136.97L65.8691 145.034C65.7405 146.392 65.8913 147.803 66.3303 149.351C66.3791 149.528 66.2771 149.71 66.0997 149.758C66.0731 149.772 66.0465 149.776 66.0154 149.776Z" fill="#ED0922"/>
<path d="M65.5494 145.251C65.4607 145.251 65.3764 145.215 65.3099 145.149L55.0034 134.612C54.8748 134.479 54.8793 134.271 55.0079 134.143C55.1409 134.015 55.3494 134.019 55.478 134.148L65.7844 144.684C65.913 144.817 65.9086 145.025 65.78 145.153C65.7179 145.22 65.6336 145.251 65.5494 145.251Z" fill="#ED0922"/>
<path d="M310.025 114.255L293.24 168.819L281.088 221.959H264.999C264.999 221.959 272.374 137.041 277.159 129.467C281.532 122.549 310.025 114.255 310.025 114.255Z" fill="#EF4A16"/>
<path d="M310.025 114.255L293.24 168.819L281.088 221.959H264.999C264.999 221.959 272.374 137.041 277.159 129.467C281.532 122.549 310.025 114.255 310.025 114.255Z" fill="white" fill-opacity="0.88"/>
<path d="M315.888 109.495L303.165 157.274L302.229 159.61L294.73 178.383C287.984 178.971 280.84 177.326 274.706 174.433C272.174 173.238 269.81 171.832 267.722 170.279C272.241 149.387 278.152 119.47 281.66 111.229C283.656 106.536 295.789 101.077 304.974 98.0072C309.107 96.6315 312.642 95.7335 314.385 95.6096L315.888 109.495Z" fill="#682A8E"/>
<path d="M302.229 159.609L294.73 178.383C287.985 178.971 280.84 177.326 274.707 174.433L274.698 174.424C274.698 174.424 288.663 175.472 288.677 169.173C288.69 162.87 286.548 162.498 290.894 151.227L302.229 159.609Z" fill="#473159"/>
<path d="M259.013 188.637C259.142 200.027 261.106 212.338 263.089 221.955H182.717L185.87 187.124C185.87 187.124 185.005 175.003 184.017 162.281C183.183 151.567 182.265 140.42 181.702 135.736C177.772 103.01 209.468 94.1277 209.468 94.1277H235.269C235.269 94.1277 252.33 100.338 262.224 117.471C268.144 127.725 265.732 142.84 262.898 158.327C261.914 163.71 260.876 169.138 260.122 174.424C259.541 178.489 259.129 182.47 259.031 186.283C259.009 187.075 259.004 187.863 259.013 188.637Z" fill="#F7C443"/>
<path d="M263.087 222.287C262.932 222.287 262.795 222.181 262.764 222.021C260.976 213.347 258.817 200.51 258.679 188.641C258.67 187.823 258.675 187.027 258.697 186.275C258.786 182.798 259.145 178.905 259.792 174.375C259.819 174.194 259.992 174.061 260.169 174.092C260.351 174.119 260.48 174.287 260.453 174.468C259.81 178.971 259.455 182.838 259.367 186.288C259.344 187.031 259.34 187.818 259.349 188.628C259.482 200.448 261.637 213.236 263.416 221.884C263.451 222.066 263.336 222.238 263.158 222.278C263.132 222.287 263.11 222.287 263.087 222.287ZM67.8503 175.132C51.9072 175.132 19.0854 124.195 17.6795 122C17.6325 121.926 17.6168 121.836 17.6359 121.75C17.655 121.663 17.7073 121.588 17.7815 121.54C17.9367 121.443 18.1407 121.487 18.2427 121.642C18.5842 122.177 52.2709 174.468 67.837 174.468C68.0144 174.468 68.1918 174.459 68.3647 174.446C68.5421 174.437 68.7062 174.57 68.7239 174.751C68.7373 174.933 68.5998 175.092 68.4179 175.11C68.2317 175.127 68.041 175.132 67.8503 175.132Z" fill="#473159"/>
<path d="M262.756 221.495H242.231C242.848 220.845 243.73 220.15 244.923 219.411C258.676 210.878 258.099 176.945 256.157 167.156C254.826 160.441 249.93 146.547 249.93 146.547L263.492 153.076C262.507 158.428 260.538 169.001 259.784 174.251C259.203 178.29 258.791 182.249 258.693 186.04C258.671 186.828 258.667 187.611 258.676 188.38C258.809 199.7 260.773 211.936 262.756 221.495Z" fill="#EBB838"/>
<path d="M260.121 174.424C259.54 178.489 259.127 182.47 259.03 186.283C252.267 189.685 238.723 196.232 229.13 199.912C220.247 203.319 201.258 208.246 208.3 221.955H182.716L185.869 187.124C185.869 187.124 185.004 175.003 184.015 162.281C186.326 154.748 188.29 149.913 191.186 148.281C197.151 144.914 200.029 142.915 200.029 142.915C203.595 155.186 197.555 171.411 221.241 170.385C234.603 169.806 254.107 170.903 260.121 174.424Z" fill="#EBB838"/>
<path d="M460.32 221.955H379.656C379.723 215.037 379.026 196.365 379.244 178.671C379.377 167.391 378.117 154.376 377.789 142.021C377.492 130.861 377.957 120.24 380.907 111.924C386.694 95.6096 406.939 89.1955 406.939 89.1955H430.208C430.208 89.1955 448.196 92.7565 454.591 107.739C462.09 125.323 456.174 155.673 455.62 170.385C455.442 175.118 455.429 179.781 455.544 184.258C455.642 188.146 455.837 191.897 456.094 195.436V195.44C456.094 195.462 456.099 195.489 456.099 195.511C456.192 196.723 456.285 197.913 456.391 199.076C457.38 209.967 458.981 218.398 460.32 221.955Z" fill="#B2EBF2"/>
<path d="M460.321 222.287C460.188 222.287 460.059 222.203 460.01 222.07C458.52 218.106 456.968 209.091 456.063 199.103C455.957 197.94 455.864 196.745 455.771 195.533C455.766 195.48 455.766 195.458 455.766 195.436C455.491 191.689 455.309 187.925 455.216 184.262C455.096 179.586 455.123 174.911 455.292 170.368C455.425 166.846 455.855 162.529 456.352 157.53C457.877 142.185 459.966 121.173 454.289 107.863C454.255 107.782 454.255 107.691 454.288 107.61C454.322 107.528 454.386 107.464 454.467 107.429C454.635 107.359 454.83 107.434 454.901 107.606C460.644 121.072 458.547 142.181 457.012 157.597C456.516 162.587 456.09 166.895 455.957 170.394C455.788 174.924 455.762 179.582 455.881 184.244C455.975 187.898 456.156 191.654 456.431 195.405C456.436 195.462 456.436 195.484 456.436 195.502C456.529 196.688 456.622 197.878 456.729 199.037C457.629 208.972 459.163 217.916 460.636 221.827C460.651 221.868 460.659 221.911 460.657 221.955C460.656 221.999 460.646 222.042 460.628 222.082C460.609 222.122 460.584 222.158 460.551 222.187C460.519 222.217 460.482 222.241 460.44 222.256C460.401 222.282 460.361 222.287 460.321 222.287Z" fill="#473159"/>
<path d="M456.099 195.511C454.254 197.515 450.71 200.545 445.291 200.775C426.625 201.576 399.786 203.717 394.872 216.355C394.082 218.39 393.958 220.354 393.373 221.955H379.656C379.723 215.037 379.026 196.365 379.244 178.671C379.377 167.391 378.117 154.376 377.789 142.021L379.514 132.201L395.914 126.774C395.914 126.774 390.552 158.331 400.078 168.103C409.604 177.879 429.987 179.352 429.987 179.352L455.544 184.258C455.642 188.146 455.837 191.897 456.094 195.436V195.44C456.094 195.462 456.099 195.489 456.099 195.511Z" fill="#A4E0E8"/>
<path d="M165.284 188.292C165.421 199.519 166.388 212.312 167.279 221.955H89.1382C91.0141 213.019 92.9521 200.828 93.5286 186.735C94.2825 168.173 92.2736 157.384 90.3356 149.444C89.4353 145.724 88.5483 142.632 87.9718 139.655C82.1445 109.557 111.015 100.728 123.162 101.4H136.236C144.564 101.4 162.707 106.686 171.927 122.469C180.06 136.404 168.889 159.543 165.953 179.44C165.505 182.484 165.248 185.447 165.284 188.292Z" fill="#FFA88C"/>
<path d="M89.1385 222.287C89.1163 222.287 89.0942 222.287 89.072 222.278C89.0289 222.269 88.9879 222.253 88.9514 222.228C88.915 222.204 88.8839 222.172 88.8599 222.135C88.8359 222.099 88.8195 222.057 88.8118 222.014C88.804 221.971 88.805 221.927 88.8148 221.884C91.2406 210.321 92.7174 198.488 93.1963 186.717C93.2052 186.54 93.3516 186.398 93.5289 186.398H93.5423C93.7241 186.407 93.8704 186.562 93.8616 186.744C93.3727 198.602 91.9027 210.4 89.4667 222.017C89.4312 222.181 89.2937 222.287 89.1385 222.287Z" fill="#473159"/>
<path d="M119.161 174.694C111.706 176.322 102.398 175.048 100.557 183.966C99.0894 191.087 99.8832 213.369 99.2845 221.955H89.1377C91.0136 213.019 92.9516 200.828 93.5281 186.735C94.282 168.173 92.2731 157.384 90.3351 149.444L119.161 174.694ZM167.279 221.955H129.042C129.042 221.955 165.824 216.328 158.99 190.751C155.952 179.374 154.679 170.385 154.679 170.385C154.679 170.385 162.627 176.649 165.953 179.44C165.505 182.484 165.248 185.447 165.283 188.292C165.421 199.519 166.387 212.312 167.279 221.955Z" fill="#F79F82"/>
<path d="M105.174 75.3321C107.715 100.029 101.085 112.503 95.6882 122.845C84.242 141.707 85.9139 166.214 109.631 173.044C129.929 178.719 174.61 170.027 169.984 142.915C167.984 131.197 153.762 122.191 151.571 109.535C148.32 90.7393 159.775 82.4983 156.112 60.7919C153.061 42.6996 126.599 39.6739 120.146 49.8437C110.766 49.3084 103.773 61.6855 105.174 75.3321Z" fill="#473159"/>
<path d="M359.709 188.721C359.82 199.514 361.363 211.878 362.964 221.955H288.677C289.448 213.068 294.136 184.753 294.158 183.643C294.69 156.964 290.069 146.299 288.987 136.598C286.663 115.768 297.945 104.744 306.221 99.5555C310.753 96.7067 314.385 95.6096 314.385 95.6096L335.974 95.8662C335.974 95.8662 336.156 95.9281 336.493 96.0564C336.524 96.0653 336.555 96.0785 336.586 96.0874C337.814 96.5563 340.786 97.7816 344.427 99.9801C350.019 103.351 357.208 109 362.135 117.692C362.312 117.993 362.481 118.298 362.645 118.608C368.911 130.295 364.977 148.378 362.046 166.028C361.931 166.705 361.82 167.377 361.713 168.05C361.447 169.704 361.194 171.35 360.964 172.986C360.188 178.432 359.656 183.744 359.709 188.721Z" fill="#682A8E"/>
<path d="M362.964 221.955H349.291C349.007 221.955 357.323 188.11 353.602 180.732C349.877 173.358 350.267 158.039 350.267 158.039L362.046 166.024C361.93 166.7 361.82 167.373 361.713 168.045C361.447 169.7 361.194 171.345 360.964 172.982C360.188 178.427 359.655 183.74 359.709 188.716C359.819 199.514 361.363 211.878 362.964 221.955Z" fill="#473159"/>
<path d="M263.908 164.772C260.941 164.254 260.945 167.09 259.012 167.342C257.371 167.559 255.925 167.718 256.009 166.585C256.156 164.524 259.664 162.321 257.362 161.326C254.657 160.154 245.255 169.739 245.255 169.739L248.239 184.757C253.344 186.505 261.136 183.333 263.242 180.896C268.449 174.884 266.874 165.289 263.908 164.772Z" fill="#EF4A16"/>
<path d="M263.908 164.772C260.941 164.254 260.945 167.09 259.012 167.342C257.371 167.559 255.925 167.718 256.009 166.585C256.156 164.524 259.664 162.321 257.362 161.326C254.657 160.154 245.255 169.739 245.255 169.739L248.239 184.757C253.344 186.505 261.136 183.333 263.242 180.896C268.449 174.884 266.874 165.289 263.908 164.772Z" fill="white" fill-opacity="0.88"/>
<path d="M257.305 167.828C256.724 167.828 256.285 167.731 255.988 167.452C255.758 167.236 255.651 166.935 255.678 166.559C255.691 166.378 255.851 166.24 256.033 166.254C256.214 166.267 256.352 166.426 256.339 166.608C256.321 166.833 256.387 166.922 256.441 166.97C256.791 167.298 258.05 167.134 258.968 167.01C259.643 166.922 260.046 166.448 260.516 165.9C261.195 165.099 262.042 164.108 263.966 164.444C264.148 164.475 264.268 164.648 264.237 164.829C264.229 164.872 264.214 164.913 264.19 164.95C264.167 164.987 264.136 165.019 264.1 165.044C264.064 165.069 264.024 165.087 263.981 165.096C263.938 165.106 263.894 165.107 263.851 165.099C262.303 164.829 261.683 165.559 261.022 166.333C260.512 166.93 259.984 167.55 259.057 167.674C258.374 167.762 257.789 167.828 257.305 167.828Z" fill="#ED0922"/>
<path d="M257.305 167.828C256.724 167.828 256.285 167.731 255.988 167.452C255.758 167.236 255.651 166.935 255.678 166.559C255.691 166.378 255.851 166.24 256.033 166.254C256.214 166.267 256.352 166.426 256.339 166.608C256.321 166.833 256.387 166.922 256.441 166.97C256.791 167.298 258.05 167.134 258.968 167.01C259.643 166.922 260.046 166.448 260.516 165.9C261.195 165.099 262.042 164.108 263.966 164.444C264.148 164.475 264.268 164.648 264.237 164.829C264.229 164.872 264.214 164.913 264.19 164.95C264.167 164.987 264.136 165.019 264.1 165.044C264.064 165.069 264.024 165.087 263.981 165.096C263.938 165.106 263.894 165.107 263.851 165.099C262.303 164.829 261.683 165.559 261.022 166.333C260.512 166.93 259.984 167.55 259.057 167.674C258.374 167.762 257.789 167.828 257.305 167.828Z" fill="white" fill-opacity="0.88"/>
<path d="M198.602 175.764C189.116 161.41 174.539 114.255 157.514 109.982L160.649 174.694C160.649 174.694 184.845 201.549 193.768 201.562C207.392 201.576 248.245 184.762 248.245 184.762C249.238 179.83 248.196 174.822 245.26 169.744L198.602 175.764Z" fill="#FFA88C"/>
<path d="M193.781 201.89H193.763C184.801 201.881 156.458 171.889 155.256 170.611C155.132 170.478 155.136 170.266 155.269 170.142C155.402 170.018 155.615 170.023 155.739 170.155C156.032 170.465 185.084 201.213 193.763 201.222H193.781C207.201 201.222 247.708 184.616 248.116 184.448C248.285 184.377 248.48 184.457 248.551 184.629C248.622 184.802 248.542 184.992 248.369 185.063C246.701 185.753 207.334 201.89 193.781 201.89Z" fill="#473159"/>
<path d="M199.577 182.767H199.56C199.516 182.764 199.473 182.754 199.434 182.735C199.394 182.716 199.359 182.69 199.329 182.657C199.3 182.625 199.278 182.587 199.263 182.546C199.249 182.504 199.242 182.461 199.245 182.417C199.413 179.016 198.3 175.901 198.287 175.87L188.344 155.911C188.306 155.832 188.3 155.741 188.328 155.657C188.356 155.574 188.416 155.505 188.495 155.465C188.659 155.385 188.858 155.451 188.943 155.615L198.903 175.609C198.965 175.778 200.087 178.909 199.914 182.448C199.901 182.63 199.755 182.767 199.577 182.767Z" fill="#ED0922"/>
<path d="M198.601 176.096C198.437 176.096 198.295 175.972 198.273 175.808C198.251 175.627 198.379 175.459 198.561 175.437L213.777 173.473C213.963 173.451 214.127 173.579 214.15 173.76C214.172 173.942 214.043 174.11 213.861 174.132L198.646 176.096C198.628 176.092 198.614 176.096 198.601 176.096Z" fill="#ED0922"/>
<path d="M459.686 176.618C458.99 176.423 456.843 176.795 455.486 176.817C453.899 176.844 457.469 171.969 454.098 171.752C451.388 171.575 447.934 178.219 446.333 178.954C444.931 179.595 443.322 180.321 442.328 181.05L445.007 193.414C449.45 194.087 453.783 194.087 457.092 193.144C458.865 192.26 460.537 188.208 459.597 187.672C460.706 186.407 461.69 183.059 460.639 181.71C461.194 180.037 461.517 177.127 459.686 176.618Z" fill="#EF4A16"/>
<path d="M459.686 176.618C458.99 176.423 456.843 176.795 455.486 176.817C453.899 176.844 457.469 171.969 454.098 171.752C451.388 171.575 447.934 178.219 446.333 178.954C444.931 179.595 443.322 180.321 442.328 181.05L445.007 193.414C449.45 194.087 453.783 194.087 457.092 193.144C458.865 192.26 460.537 188.208 459.597 187.672C460.706 186.407 461.69 183.059 460.639 181.71C461.194 180.037 461.517 177.127 459.686 176.618Z" fill="white" fill-opacity="0.88"/>
<path d="M338.23 114.091C338.23 114.091 362.662 114.401 366.671 120.921C370.68 127.441 404.003 181.077 404.003 181.077H445.889L446.191 193.357C436.301 194.582 409.693 201.664 397.958 201.558C386.694 201.456 354.04 163.272 354.04 163.272L338.23 114.091Z" fill="#EF4A16"/>
<path d="M338.23 114.091C338.23 114.091 362.662 114.401 366.671 120.921C370.68 127.441 404.003 181.077 404.003 181.077H445.889L446.191 193.357C436.301 194.582 409.693 201.664 397.958 201.558C386.694 201.456 354.04 163.272 354.04 163.272L338.23 114.091Z" fill="white" fill-opacity="0.88"/>
<path d="M390.588 155.779C385.572 164.502 377.244 172.093 366.809 178.971L348.183 159.817L339.091 136.47L336.785 106.461L335.974 95.8927C335.974 95.8927 336.155 95.9502 336.492 96.0608C336.524 96.0696 336.555 96.0829 336.586 96.0918C337.912 96.5297 341.247 97.6533 345.176 99.144C352.604 101.957 362.166 106.085 364.365 109.38C368.082 114.94 390.588 155.779 390.588 155.779Z" fill="#682A8E"/>
<path d="M363.071 175.645C363.001 175.645 362.933 175.623 362.876 175.582C362.82 175.541 362.777 175.484 362.755 175.418C362.733 175.352 362.733 175.281 362.753 175.214C362.774 175.148 362.815 175.089 362.871 175.048C370.994 168.942 378.158 161.661 384.127 153.447C384.18 153.377 384.258 153.329 384.345 153.315C384.432 153.301 384.521 153.322 384.593 153.372C384.739 153.478 384.775 153.686 384.668 153.837C378.657 162.103 371.446 169.431 363.27 175.578C363.213 175.621 363.143 175.645 363.071 175.645Z" fill="#A481C1"/>
<path d="M366.809 179.299C366.72 179.299 366.636 179.263 366.569 179.197L347.943 160.043C347.815 159.91 347.819 159.702 347.952 159.574C348.085 159.446 348.294 159.45 348.422 159.583L366.858 178.542C378.002 171.159 385.675 163.657 390.3 155.615C390.393 155.456 390.597 155.403 390.752 155.491C390.912 155.584 390.965 155.783 390.877 155.942C386.167 164.135 378.353 171.757 366.991 179.246C366.938 179.281 366.871 179.299 366.809 179.299Z" fill="#473159"/>
<path d="M402.908 188.155C402.841 188.155 402.775 188.137 402.717 188.093C402.681 188.067 402.651 188.035 402.627 187.998C402.604 187.961 402.588 187.92 402.581 187.877C402.573 187.834 402.575 187.79 402.584 187.747C402.594 187.704 402.612 187.664 402.637 187.628C403.95 185.775 404.38 183.364 403.795 181.17L396.717 169.328C396.624 169.169 396.673 168.965 396.832 168.872C396.992 168.78 397.196 168.833 397.289 168.987L404.389 180.869C404.402 180.896 404.416 180.922 404.425 180.953C405.076 183.346 404.615 185.983 403.183 188.013C403.116 188.106 403.014 188.155 402.908 188.155Z" fill="#ED0922"/>
<path d="M402.908 188.155C402.841 188.155 402.775 188.137 402.717 188.093C402.681 188.067 402.651 188.035 402.627 187.998C402.604 187.961 402.588 187.92 402.581 187.877C402.573 187.834 402.575 187.79 402.584 187.747C402.594 187.704 402.612 187.664 402.637 187.628C403.95 185.775 404.38 183.364 403.795 181.17L396.717 169.328C396.624 169.169 396.673 168.965 396.832 168.872C396.992 168.78 397.196 168.833 397.289 168.987L404.389 180.869C404.402 180.896 404.416 180.922 404.425 180.953C405.076 183.346 404.615 185.983 403.183 188.013C403.116 188.106 403.014 188.155 402.908 188.155Z" fill="white" fill-opacity="0.88"/>
<path d="M413.197 181.409L404.106 181.373C403.924 181.373 403.773 181.223 403.773 181.042C403.773 180.86 403.924 180.71 404.106 180.71L413.197 180.745C413.379 180.745 413.53 180.896 413.53 181.077C413.526 181.263 413.379 181.409 413.197 181.409Z" fill="#ED0922"/>
<path d="M413.197 181.409L404.106 181.373C403.924 181.373 403.773 181.223 403.773 181.042C403.773 180.86 403.924 180.71 404.106 180.71L413.197 180.745C413.379 180.745 413.53 180.896 413.53 181.077C413.526 181.263 413.379 181.409 413.197 181.409Z" fill="white" fill-opacity="0.88"/>
<path d="M234.457 94.1322C236.785 93.8756 258.241 100.272 265.873 106.85C273.51 113.428 317.924 144.459 317.924 144.459C317.924 144.459 354.112 123.77 360.902 121.97C370.042 119.545 380.455 126.933 382.264 130.538C383.949 133.891 387.741 144.963 385.023 145.742C382.304 146.52 378.051 138.447 375.882 139.053C373.714 139.659 370.716 140.54 365.855 138.983C360.995 137.425 333.41 167.811 323.534 169.863C304.212 173.88 259.008 148.321 259.008 148.321L234.457 94.1322Z" fill="#EF4A16"/>
<path d="M234.457 94.1322C236.785 93.8756 258.241 100.272 265.873 106.85C273.51 113.428 317.924 144.459 317.924 144.459C317.924 144.459 354.112 123.77 360.902 121.97C370.042 119.545 380.455 126.933 382.264 130.538C383.949 133.891 387.741 144.963 385.023 145.742C382.304 146.52 378.051 138.447 375.882 139.053C373.714 139.659 370.716 140.54 365.855 138.983C360.995 137.425 333.41 167.811 323.534 169.863C304.212 173.88 259.008 148.321 259.008 148.321L234.457 94.1322Z" fill="white" fill-opacity="0.88"/>
<path d="M295.546 125.805C294.123 139.535 292.238 150.541 286.113 163.436L248.941 149.338L234.457 94.1321C234.457 94.1321 254.622 96.7465 260.605 101.404C270.259 108.92 295.546 125.805 295.546 125.805Z" fill="#FFCF53"/>
<path d="M243.575 98.1487C241.642 99.6527 249.203 107.783 245.021 105.341C239.096 101.887 232.994 101.241 230.821 102.409C229.708 103.006 226.936 104.696 226.71 106.39C226.28 109.628 227.721 113.866 229.238 115.52C234.857 121.669 250.352 124.818 257.297 121.987L260.521 109.159C260.521 109.159 255.248 106.881 252.308 103.161C249.722 99.8827 244.813 97.1888 243.575 98.1487Z" fill="#EF4A16"/>
<path d="M243.575 98.1487C241.642 99.6527 249.203 107.783 245.021 105.341C239.096 101.887 232.994 101.241 230.821 102.409C229.708 103.006 226.936 104.696 226.71 106.39C226.28 109.628 227.721 113.866 229.238 115.52C234.857 121.669 250.352 124.818 257.297 121.987L260.521 109.159C260.521 109.159 255.248 106.881 252.308 103.161C249.722 99.8827 244.813 97.1888 243.575 98.1487Z" fill="white" fill-opacity="0.88"/>
<path d="M408.004 89.1955C388.008 90.8543 353.487 108.119 323.659 120.346L260.49 108.46L254.765 123.81C254.765 123.81 311.57 150.426 320.768 149.298C336.963 147.316 382.943 132.237 382.943 132.237L408.004 89.1955Z" fill="#B2EBF2"/>
<path d="M323.193 120.479C322.616 120.479 322.057 120.342 321.521 120.209L321.468 120.196C316.931 119.072 312.523 118.431 308.372 118.294C308.284 118.291 308.2 118.253 308.14 118.189C308.079 118.126 308.046 118.041 308.048 117.953C308.052 117.772 308.199 117.621 308.389 117.634C312.589 117.772 317.042 118.417 321.623 119.554L321.68 119.568C322.248 119.709 322.785 119.842 323.326 119.815C323.831 119.793 324.346 119.621 324.798 119.475C328.9 118.121 332.98 116.551 336.927 114.803C337.096 114.728 337.291 114.803 337.366 114.971C337.442 115.14 337.366 115.334 337.198 115.409C333.229 117.166 329.126 118.749 325.007 120.107C324.51 120.271 323.951 120.457 323.357 120.483C323.304 120.479 323.246 120.479 323.193 120.479Z" fill="#00A0B5"/>
<path d="M319.809 129.835C319.791 129.835 319.773 129.835 319.756 129.83C319.712 129.823 319.671 129.808 319.634 129.785C319.597 129.762 319.564 129.732 319.539 129.697C319.513 129.662 319.495 129.622 319.485 129.579C319.475 129.537 319.474 129.493 319.481 129.45C320.013 126.207 321.237 123.036 323.015 120.271C323.113 120.116 323.321 120.072 323.476 120.169C323.632 120.266 323.676 120.474 323.578 120.629C321.839 123.342 320.67 126.379 320.141 129.556C320.11 129.715 319.969 129.835 319.809 129.835ZM316.27 123.969C316.155 123.969 316.039 123.907 315.977 123.801C315.888 123.642 315.946 123.438 316.106 123.35C316.789 122.969 317.352 122.43 317.951 121.859C318.137 121.678 318.328 121.501 318.518 121.324C319.201 120.704 320.257 119.864 321.521 119.753C321.707 119.736 321.867 119.873 321.88 120.054C321.893 120.235 321.76 120.399 321.578 120.412C320.514 120.51 319.574 121.257 318.962 121.815C318.776 121.987 318.589 122.16 318.407 122.337C317.804 122.912 317.183 123.505 316.425 123.925C316.381 123.956 316.323 123.969 316.27 123.969Z" fill="#00A0B5"/>
<path d="M320.15 149.665C309.294 149.665 256.897 125.177 254.622 124.111C254.542 124.073 254.48 124.005 254.45 123.922C254.42 123.839 254.425 123.748 254.462 123.668C254.542 123.5 254.742 123.429 254.906 123.509C255.473 123.774 311.711 150.059 320.727 148.971C336.696 147.016 351.309 141.632 351.455 141.579C351.628 141.517 351.819 141.601 351.881 141.774C351.943 141.946 351.859 142.136 351.686 142.198C351.54 142.252 336.856 147.666 320.807 149.63C320.607 149.652 320.385 149.665 320.15 149.665Z" fill="#473159"/>
<path d="M212.838 75.5179C212.301 82.6486 211.614 89.2884 210.395 94.1321C212.714 96.481 215.113 98.047 217.588 98.8255C222.519 100.378 227.757 98.8123 233.3 94.1321C230.897 89.2884 230.639 82.6486 230.968 75.5179H212.838Z" fill="#EF4A16"/>
<path d="M212.838 75.5179C212.301 82.6486 211.614 89.2884 210.395 94.1321C212.714 96.481 215.113 98.047 217.588 98.8255C222.519 100.378 227.757 98.8123 233.3 94.1321C230.897 89.2884 230.639 82.6486 230.968 75.5179H212.838Z" fill="white" fill-opacity="0.88"/>
<path d="M221.308 99.728C220.013 99.728 218.741 99.5333 217.49 99.1352C217.406 99.1085 217.336 99.0498 217.296 98.9719C217.255 98.894 217.247 98.8033 217.273 98.7194C217.326 98.5469 217.512 98.4496 217.69 98.5026C222.484 100.011 227.663 98.454 233.087 93.8756C233.225 93.7562 233.438 93.7739 233.557 93.9154C233.677 94.057 233.659 94.2649 233.517 94.3843C229.304 97.9408 225.211 99.728 221.308 99.728Z" fill="#473159"/>
<path d="M334.435 91.447C333.473 87.3022 333.406 82.4053 333.641 77.2563H315.512C315.152 82.0293 315.059 86.3777 314.674 90.1863C314.372 93.1413 312.319 95.6229 309.48 96.5253C308.035 96.9853 306.469 97.5117 304.975 98.0072C304.975 98.0072 310.514 107.739 325.073 107.739C339.792 107.739 344.937 99.4094 345.172 99.1396C343.353 98.4495 341.247 97.6975 339.513 97.0871C338.259 96.6493 337.136 95.9028 336.248 94.9169C335.361 93.931 334.737 92.7375 334.435 91.447Z" fill="#EF4A16"/>
<path d="M334.435 91.447C333.473 87.3022 333.406 82.4053 333.641 77.2563H315.512C315.152 82.0293 315.059 86.3777 314.674 90.1863C314.372 93.1413 312.319 95.6229 309.48 96.5253C308.035 96.9853 306.469 97.5117 304.975 98.0072C304.975 98.0072 310.514 107.739 325.073 107.739C339.792 107.739 344.937 99.4094 345.172 99.1396C343.353 98.4495 341.247 97.6975 339.513 97.0871C338.259 96.6493 337.136 95.9028 336.248 94.9169C335.361 93.931 334.737 92.7375 334.435 91.447Z" fill="white" fill-opacity="0.88"/>
<path d="M324.675 108.049C319.544 108.049 315.57 106.699 312.727 105.191C307.304 102.311 304.798 98.3478 304.692 98.1797C304.669 98.1428 304.653 98.1018 304.646 98.0589C304.639 98.0161 304.64 97.9722 304.65 97.9299C304.66 97.8876 304.678 97.8476 304.704 97.8123C304.729 97.777 304.761 97.747 304.798 97.7241C304.835 97.7011 304.876 97.6857 304.919 97.6786C304.962 97.6715 305.006 97.6729 305.048 97.6828C305.091 97.6927 305.131 97.7108 305.166 97.7361C305.202 97.7614 305.232 97.7934 305.255 97.8302C305.281 97.8701 307.787 101.829 313.069 104.62C317.938 107.195 326.231 109.283 338.108 104.585C338.276 104.519 338.471 104.603 338.538 104.771C338.57 104.852 338.568 104.943 338.533 105.024C338.499 105.104 338.433 105.167 338.352 105.2C333.123 107.275 328.568 108.049 324.675 108.049ZM241.882 30.1234C242.281 30.0527 243.673 30.6277 244.755 31.3355C243.052 24.1074 223.965 16.145 211.282 24.886C193.028 25.607 189.941 48.1273 193.538 62.1676C194.367 60.5132 194.434 59.9647 195.401 58.7261C194.225 64.3042 196.926 70.2937 199.126 74.0802C199.294 73.1557 199.68 71.4438 200.017 71.0899C204.004 80.1051 213.029 83.9536 221.85 83.9536C228.56 83.9536 241.367 79.8485 244.489 61.0219C244.724 63.4018 244.955 67.2591 244.361 68.2854C246.88 63.9282 248.45 57.6998 248.707 51.4095C249.156 52.0738 249.566 52.7635 249.935 53.4753C251.66 41.2664 246.339 32.0167 241.882 30.1234ZM289.533 41.4477C283.799 43.5887 279.697 49.848 280.69 55.8729C281.067 58.151 282.092 60.4601 281.462 62.6807C280.615 65.6578 277.293 67.0247 274.579 68.5198C264.344 74.1554 259.155 86.2981 258.508 97.9453C258.273 102.161 258.588 106.589 260.73 110.229C263.501 114.949 269.244 117.643 274.704 117.108C280.163 116.577 285.143 113.003 287.72 108.172C290.296 103.342 290.527 97.41 288.686 92.2566C287.36 88.5364 285.001 84.5109 286.691 80.9411C287.901 78.3799 290.828 77.0882 292.465 74.7747C294.035 72.5541 294.239 69.6434 293.982 66.9362C293.724 64.229 293.064 61.5527 293.117 58.8367C293.17 56.1206 294.084 53.2232 296.305 51.6528C298.527 50.0825 302.199 50.5293 303.339 53.002L306.603 45.137C302.066 41.0319 295.268 39.3067 289.533 41.4477ZM390.953 97.3923C390.305 85.7451 385.121 73.6025 374.881 67.9669C372.162 66.4717 368.845 65.1049 367.998 62.1278C367.368 59.9072 368.393 57.5981 368.77 55.32C369.763 49.2951 365.661 43.0358 359.927 40.8948C354.193 38.7538 347.394 40.479 342.862 44.5884L346.126 52.4535C347.261 49.9807 350.933 49.534 353.159 51.1043C355.381 52.6747 356.299 55.5721 356.348 58.2882C356.401 61.0042 355.736 63.6849 355.483 66.3877C355.226 69.0949 355.43 72.0012 357 74.2262C358.636 76.5397 361.563 77.8358 362.774 80.3926C364.464 83.9624 362.109 87.9879 360.778 91.7081C358.938 96.8615 359.169 102.793 361.745 107.624C364.322 112.454 369.302 116.024 374.761 116.56C380.22 117.09 385.959 114.401 388.735 109.681C390.873 106.032 391.188 101.608 390.953 97.3923Z" fill="#473159"/>
<path d="M410.119 71.0722C410.616 77.5483 410.305 83.7368 407.999 89.1955C415.578 97.4631 422.935 98.0293 430.031 89.1955C427.654 84.1748 427.206 77.9553 427.264 71.4173L410.119 71.0722Z" fill="#EF4A16"/>
<path d="M410.119 71.0722C410.616 77.5483 410.305 83.7368 407.999 89.1955C415.578 97.4631 422.935 98.0293 430.031 89.1955C427.654 84.1748 427.206 77.9553 427.264 71.4173L410.119 71.0722Z" fill="white" fill-opacity="0.88"/>
<path d="M443.354 59.9426C443.646 58.8765 443.886 57.806 444.059 56.7355C445.092 54.2362 446.711 52.4004 446.365 49.3703C445.944 45.6944 444.116 41.5672 441.167 39.2846C437.42 33.4765 431.805 32.7997 431.805 32.7997C430.258 28.4558 425.792 26.7881 420.696 26.6112C418.018 26.4387 410.523 26.1954 403.512 33.0209C399.294 34.4984 394.398 36.7278 395.037 41.3858C395.334 43.5357 394.132 45.1812 393.161 47.1232C392.043 49.3482 390.97 52.1173 391.538 56.2091C391.87 58.5846 393.218 60.7034 393.822 63.0258C394.3 64.866 394.323 66.7947 394.74 68.6481C395.964 74.1377 400.944 78.5303 406.501 79.2691C409.977 81.0429 414.19 81.8392 419.188 81.18C419.996 81.0739 420.776 80.9279 421.543 80.7687C423.149 81.0208 424.763 81.1756 426.382 81.1137C429.42 80.9987 431.402 79.9105 433.508 77.7253C435.101 76.0753 436.56 73.1336 436.954 72.2356C437.052 72.6824 441.056 69.2453 441.859 68.0996C444.6 64.2069 443.478 61.942 443.354 59.9426ZM102.842 112.167C102.788 112.167 102.731 112.154 102.682 112.127C102.522 112.039 102.46 111.835 102.549 111.676C104.997 107.221 105.959 101.657 105.485 94.6674C105.272 91.5223 104.797 88.3462 104.345 85.2718C103.95 82.6089 103.542 79.8574 103.298 77.1281C102.664 69.9752 103.418 64.2511 105.605 59.6285C108.048 54.4574 111.689 49.2066 120.16 49.5075C120.341 49.5119 120.488 49.6667 120.479 49.8525C120.474 50.0339 120.319 50.1843 120.133 50.171C112.057 49.8923 108.558 54.9351 106.203 59.9116C104.07 64.4236 103.334 70.0371 103.959 77.0706C104.199 79.7822 104.607 82.5248 105.001 85.1745C105.458 88.2621 105.933 91.4515 106.15 94.6232C106.633 101.741 105.649 107.425 103.134 111.994C103.072 112.105 102.961 112.167 102.842 112.167ZM110.917 173.561C103.183 173.561 95.4711 169.425 91.2225 162.976C86.9341 156.464 86.2068 147.657 89.3777 140.54C89.4531 140.372 89.6482 140.296 89.8167 140.372C89.9852 140.447 90.0606 140.641 89.9852 140.809C86.9031 147.728 87.6082 156.287 91.7769 162.613C95.9456 168.939 103.56 172.982 111.135 172.898C111.308 172.885 111.467 173.044 111.472 173.225C111.476 173.407 111.325 173.557 111.144 173.561H110.917Z" fill="#473159"/>
<path d="M106.581 131.427C102.713 130.188 100.749 117.785 97.3607 119.616C94.9792 120.908 98.802 126.132 97.1434 126.57C93.0368 127.649 89.8393 116.958 87.7372 117.227C80.9298 118.103 74.2732 131.772 84.3313 138.412C90.0034 142.159 101.512 144.379 101.512 144.379L106.581 131.427Z" fill="#EF4A16"/>
<path d="M106.581 131.427C102.713 130.188 100.749 117.785 97.3607 119.616C94.9792 120.908 98.802 126.132 97.1434 126.57C93.0368 127.649 89.8393 116.958 87.7372 117.227C80.9298 118.103 74.2732 131.772 84.3313 138.412C90.0034 142.159 101.512 144.379 101.512 144.379L106.581 131.427Z" fill="white" fill-opacity="0.88"/>
<path d="M101.511 144.711C101.489 144.711 101.471 144.711 101.449 144.707C100.974 144.614 89.8118 142.433 84.1485 138.691C79.8335 135.842 78.033 131.312 79.2082 126.274C80.3435 121.408 83.9933 117.378 87.6964 116.9C87.7816 116.894 87.8662 116.92 87.9324 116.974C87.9987 117.028 88.0417 117.105 88.0525 117.19C88.0634 117.274 88.0412 117.36 87.9906 117.429C87.94 117.497 87.8648 117.544 87.7806 117.559C84.3925 117.997 80.9111 121.89 79.8557 126.424C78.747 131.179 80.4455 135.448 84.5166 138.138C90.069 141.805 101.462 144.03 101.577 144.052C101.759 144.087 101.874 144.26 101.839 144.441C101.808 144.6 101.666 144.711 101.511 144.711Z" fill="#ED0922"/>
<path d="M101.511 144.711C101.489 144.711 101.471 144.711 101.449 144.707C100.974 144.614 89.8118 142.433 84.1485 138.691C79.8335 135.842 78.033 131.312 79.2082 126.274C80.3435 121.408 83.9933 117.378 87.6964 116.9C87.7816 116.894 87.8662 116.92 87.9324 116.974C87.9987 117.028 88.0417 117.105 88.0525 117.19C88.0634 117.274 88.0412 117.36 87.9906 117.429C87.94 117.497 87.8648 117.544 87.7806 117.559C84.3925 117.997 80.9111 121.89 79.8557 126.424C78.747 131.179 80.4455 135.448 84.5166 138.138C90.069 141.805 101.462 144.03 101.577 144.052C101.759 144.087 101.874 144.26 101.839 144.441C101.808 144.6 101.666 144.711 101.511 144.711Z" fill="white" fill-opacity="0.88"/>
<path d="M143.616 142.919C143.616 142.919 121.593 136.899 106.585 131.427L100.567 143.773C100.567 143.773 139.163 168.802 151.168 165.701C163.173 162.595 191.6 146.14 191.6 146.14L205.521 95.6096C182.389 101.21 143.616 142.919 143.616 142.919Z" fill="#EF4A16"/>
<path d="M143.616 142.919C143.616 142.919 121.593 136.899 106.585 131.427L100.567 143.773C100.567 143.773 139.163 168.802 151.168 165.701C163.173 162.595 191.6 146.14 191.6 146.14L205.521 95.6096C182.389 101.21 143.616 142.919 143.616 142.919Z" fill="white" fill-opacity="0.88"/>
<path d="M150.006 134.081C151.163 142.919 163.616 160.207 166.339 163.277C178.043 157.367 192.145 151.66 200.412 144.384C208.678 137.102 209.472 94.1321 209.472 94.1321C204.292 94.1321 188.092 96.9765 182.721 101.369C171.79 110.309 150.006 134.081 150.006 134.081Z" fill="#FFCF53"/>
<path d="M166.339 163.608C166.292 163.608 166.246 163.599 166.203 163.58C166.16 163.56 166.122 163.533 166.09 163.498C163.066 160.092 150.83 142.928 149.677 134.125C149.655 133.944 149.784 133.776 149.966 133.754C150.143 133.732 150.316 133.86 150.338 134.041C151.451 142.548 163.168 159.083 166.423 162.865C169.133 161.503 172.015 160.123 174.809 158.787C184.207 154.297 193.919 149.657 200.194 144.132C200.331 144.012 200.54 144.021 200.664 144.162C200.784 144.3 200.77 144.508 200.633 144.631C194.291 150.218 184.535 154.876 175.097 159.384C172.228 160.755 169.261 162.171 166.494 163.569C166.441 163.595 166.388 163.608 166.339 163.608Z" fill="#473159"/>
<path d="M141.566 148.157C141.553 148.157 141.539 148.157 141.526 148.152C141.439 148.141 141.359 148.096 141.305 148.026C141.251 147.956 141.227 147.868 141.238 147.781C141.469 145.923 142.205 144.158 143.358 142.681C143.469 142.535 143.681 142.512 143.823 142.623C143.97 142.734 143.996 142.946 143.881 143.088C142.799 144.471 142.113 146.12 141.894 147.861C141.877 148.037 141.73 148.157 141.566 148.157Z" fill="#ED0922"/>
<path d="M141.566 148.157C141.553 148.157 141.539 148.157 141.526 148.152C141.439 148.141 141.359 148.096 141.305 148.026C141.251 147.956 141.227 147.868 141.238 147.781C141.469 145.923 142.205 144.158 143.358 142.681C143.469 142.535 143.681 142.512 143.823 142.623C143.97 142.734 143.996 142.946 143.881 143.088C142.799 144.471 142.113 146.12 141.894 147.861C141.877 148.037 141.73 148.157 141.566 148.157Z" fill="white" fill-opacity="0.88"/>
<path d="M136.711 146.065C136.635 146.065 136.555 146.038 136.493 145.985C136.46 145.956 136.433 145.921 136.414 145.882C136.394 145.843 136.383 145.801 136.38 145.757C136.377 145.713 136.383 145.67 136.397 145.628C136.411 145.587 136.433 145.549 136.462 145.516C138.085 143.654 140.529 142.512 142.999 142.459C143.087 142.457 143.173 142.49 143.237 142.55C143.301 142.611 143.338 142.694 143.341 142.782C143.343 142.87 143.31 142.956 143.249 143.02C143.189 143.083 143.105 143.121 143.017 143.123C140.729 143.172 138.471 144.229 136.968 145.95C136.935 145.985 136.895 146.014 136.851 146.034C136.807 146.053 136.759 146.064 136.711 146.065Z" fill="#ED0922"/>
<path d="M136.711 146.065C136.635 146.065 136.555 146.038 136.493 145.985C136.46 145.956 136.433 145.921 136.414 145.882C136.394 145.843 136.383 145.801 136.38 145.757C136.377 145.713 136.383 145.67 136.397 145.628C136.411 145.587 136.433 145.549 136.462 145.516C138.085 143.654 140.529 142.512 142.999 142.459C143.087 142.457 143.173 142.49 143.237 142.55C143.301 142.611 143.338 142.694 143.341 142.782C143.343 142.87 143.31 142.956 143.249 143.02C143.189 143.083 143.105 143.121 143.017 143.123C140.729 143.172 138.471 144.229 136.968 145.95C136.935 145.985 136.895 146.014 136.851 146.034C136.807 146.053 136.759 146.064 136.711 146.065Z" fill="white" fill-opacity="0.88"/>
<path d="M154.28 120.213C154.192 120.213 154.103 120.178 154.041 120.112C151.81 117.767 151.54 114.25 151.531 111.809C151.504 105.43 152.901 99.4095 154.733 92.2035L154.861 91.6948C156.422 85.5461 158.036 79.1894 158.196 72.7886C158.325 67.613 157.491 60.2168 152.795 54.3556C152.679 54.2141 152.701 54.0018 152.848 53.8912C152.99 53.7762 153.198 53.7983 153.313 53.9442C158.134 59.9603 158.99 67.5245 158.861 72.8107C158.702 79.2823 157.079 85.6788 155.504 91.8629L155.376 92.3716C153.557 99.5333 152.169 105.514 152.196 111.813C152.205 114.14 152.458 117.488 154.524 119.66C154.653 119.793 154.644 120.001 154.511 120.129C154.444 120.182 154.36 120.213 154.28 120.213ZM193.705 56.1295C193.642 56.1292 193.58 56.1108 193.526 56.0763C193.473 56.0417 193.43 55.9927 193.404 55.9348C191.537 51.8961 191.173 44.7742 191.905 40.2224C192.703 35.2326 195.346 30.3446 198.641 27.7701C202.358 24.8639 207.178 23.7535 211.529 24.8108C211.615 24.8319 211.689 24.8862 211.734 24.9616C211.78 25.0371 211.794 25.1277 211.773 25.2133C211.752 25.2989 211.697 25.3727 211.622 25.4183C211.546 25.464 211.455 25.4777 211.369 25.4566C207.276 24.4613 202.557 25.5495 199.049 28.2921C195.448 31.1099 193.195 36.3695 192.561 40.3286C191.847 44.7787 192.193 51.7325 194.007 55.6562C194.03 55.7068 194.04 55.7625 194.036 55.818C194.032 55.8736 194.015 55.9273 193.985 55.9742C193.955 56.0212 193.914 56.06 193.865 56.0871C193.816 56.1142 193.761 56.1288 193.705 56.1295Z" fill="#473159"/>
<path d="M211.853 26.0538C211.747 26.0538 211.641 26.0007 211.574 25.9034C210.825 24.771 209.698 23.9128 208.403 23.4926C207.108 23.0723 205.693 23.1033 204.416 23.5766C204.376 23.5924 204.332 23.5998 204.288 23.5985C204.245 23.5972 204.202 23.5872 204.162 23.5691C204.122 23.5509 204.087 23.525 204.057 23.4929C204.028 23.4607 204.005 23.423 203.991 23.382C203.975 23.341 203.968 23.2974 203.969 23.2536C203.97 23.2099 203.98 23.1668 203.998 23.1269C204.017 23.087 204.042 23.0511 204.075 23.0212C204.107 22.9914 204.144 22.9681 204.186 22.9529C205.608 22.4251 207.168 22.3924 208.612 22.86C210.048 23.3245 211.299 24.2755 212.133 25.5362C212.166 25.5865 212.185 25.6449 212.188 25.7052C212.191 25.7655 212.177 25.8255 212.149 25.8786C212.12 25.9318 212.077 25.9762 212.025 26.007C211.973 26.0379 211.914 26.054 211.853 26.0538Z" fill="#473159"/>
<path d="M211.6 25.7795C211.546 25.7802 211.493 25.7674 211.445 25.7424C211.397 25.7174 211.356 25.6809 211.325 25.6362C211.295 25.5914 211.276 25.5399 211.271 25.4861C211.265 25.4324 211.273 25.3781 211.294 25.3283C211.538 24.709 211.454 23.926 211.059 23.174C210.687 22.4662 210.106 21.8691 209.547 21.2896C209.418 21.1569 209.423 20.949 209.556 20.8207C209.689 20.6924 209.897 20.6968 210.026 20.8295C210.62 21.4444 211.232 22.077 211.649 22.8688C212.132 23.7889 212.23 24.7753 211.911 25.5716C211.857 25.6999 211.729 25.7795 211.6 25.7795ZM382.912 75.7611C382.787 75.7611 382.672 75.6948 382.615 75.5753C381.124 72.5673 377.931 70.3865 375.111 68.4623C374.042 67.7324 373.031 67.0423 372.171 66.3522C370.827 65.2685 369.155 63.9193 368.547 61.9995C367.949 60.0929 368.53 58.1598 369.093 56.2887C369.386 55.3155 369.692 54.3069 369.82 53.3249C370.454 48.459 366.769 44.146 362.8 42.4032C359.088 40.7709 354.409 40.5851 348.888 41.8547C348.803 41.8712 348.716 41.8543 348.643 41.8076C348.571 41.7609 348.52 41.688 348.5 41.6043C348.48 41.5206 348.494 41.4326 348.539 41.3588C348.583 41.285 348.654 41.2312 348.737 41.2088C354.4 39.9083 359.217 40.1073 363.066 41.7971C367.261 43.6418 371.155 48.2245 370.477 53.4134C370.339 54.4485 370.029 55.4836 369.727 56.4833C369.168 58.3412 368.641 60.0929 369.177 61.8048C369.723 63.5344 371.306 64.8129 372.583 65.8391C373.421 66.5159 374.419 67.1971 375.479 67.9182C378.366 69.8867 381.634 72.1205 383.204 75.2878C383.284 75.4515 383.218 75.6505 383.054 75.7302C383.009 75.7479 382.96 75.7611 382.912 75.7611ZM371.594 115.294C371.576 115.294 371.563 115.294 371.545 115.29C368.015 114.79 362.037 112.508 359.802 109.008C357.633 105.616 356.813 101.17 357.602 97.1092C358.046 94.831 358.964 92.7033 359.851 90.6464C360.414 89.3414 360.995 87.9922 361.447 86.6254C361.966 85.0462 363.443 79.6406 360.543 76.2919C360.514 76.2589 360.492 76.2206 360.478 76.179C360.464 76.1375 360.459 76.0937 360.462 76.0501C360.466 76.0065 360.478 75.964 360.497 75.925C360.517 75.8861 360.545 75.8514 360.578 75.823C360.716 75.7036 360.928 75.7169 361.048 75.8584C363.159 78.2958 363.545 82.3964 362.081 86.8288C361.62 88.2223 361.035 89.5847 360.467 90.9029C359.594 92.9289 358.693 95.0212 358.263 97.2286C357.505 101.126 358.29 105.39 360.37 108.641C362.494 111.963 368.241 114.14 371.647 114.622C371.829 114.649 371.958 114.817 371.931 114.998C371.9 115.175 371.754 115.294 371.594 115.294ZM319.951 87.5676C319.933 87.5676 319.915 87.5676 319.898 87.5631C312.687 86.4042 306.487 82.8609 302.895 77.8358C299.24 72.7266 297.719 65.2242 298.93 58.2572C298.961 58.0758 299.138 57.9519 299.316 57.9873C299.498 58.0183 299.617 58.1908 299.586 58.3722C298.407 65.1712 299.884 72.4833 303.436 77.4509C306.926 82.3301 312.966 85.776 320.004 86.9085C320.086 86.922 320.161 86.9659 320.212 87.0315C320.263 87.097 320.288 87.1795 320.282 87.2624C320.275 87.3454 320.237 87.4228 320.176 87.4793C320.115 87.5358 320.034 87.5673 319.951 87.5676ZM267.204 115.122C267.15 115.122 267.093 115.109 267.039 115.078C261.261 111.831 257.234 105.894 256.267 99.2015C255.367 92.9953 257.141 86.2538 261.128 80.7022C264.827 75.5532 270.281 71.4305 276.902 68.7719C277.071 68.7056 277.266 68.7852 277.337 68.9577C277.369 69.0399 277.368 69.1314 277.333 69.2125C277.298 69.2936 277.233 69.3578 277.151 69.3912C270.645 72.0011 265.292 76.0487 261.669 81.0915C257.784 86.5059 256.055 93.0705 256.928 99.113C257.868 105.607 261.771 111.362 267.368 114.507C267.527 114.595 267.585 114.799 267.496 114.958C267.434 115.06 267.319 115.122 267.204 115.122ZM284.872 81.003C284.818 81.0029 284.764 80.9893 284.717 80.9632C284.638 80.9227 284.58 80.8529 284.553 80.7691C284.526 80.6853 284.534 80.5945 284.575 80.5164C285.541 78.6807 287.471 77.8535 289.338 77.0528C290.659 76.4866 292.021 75.9027 293.032 74.9693C295.227 72.9345 295.333 69.7053 295.205 67.958C295.094 66.4982 294.784 65.034 294.482 63.6141C294.247 62.5038 294.003 61.3581 293.852 60.2079C293.808 59.8496 293.746 59.4736 293.684 59.0844C293.28 56.5895 292.783 53.4886 295.32 51.2635C295.458 51.1441 295.666 51.1574 295.79 51.2945C295.91 51.4316 295.897 51.644 295.759 51.7634C293.497 53.7451 293.945 56.5275 294.34 58.9782C294.402 59.3763 294.464 59.7567 294.513 60.1195C294.659 61.243 294.899 62.3755 295.134 63.4725C295.44 64.9146 295.755 66.4009 295.866 67.9049C296.003 69.7672 295.879 73.2264 293.48 75.4515C292.389 76.4645 290.97 77.0705 289.599 77.6588C287.759 78.4462 286.02 79.1938 285.16 80.8217C285.107 80.9367 284.992 81.003 284.872 81.003ZM283.275 47.0877C283.22 47.0876 283.167 47.074 283.118 47.0481C283.07 47.0222 283.029 46.9849 282.999 46.9394C282.969 46.8938 282.95 46.8416 282.945 46.7872C282.94 46.7328 282.948 46.678 282.969 46.6276C284.601 42.7482 288.344 39.7535 292.495 39.0015C296.646 38.2495 301.201 39.7446 304.101 42.8057C304.225 42.9384 304.221 43.1507 304.088 43.2746C303.955 43.3985 303.742 43.394 303.618 43.2613C300.872 40.3595 296.553 38.944 292.615 39.6561C288.677 40.3683 285.133 43.2082 283.581 46.8886C283.528 47.0125 283.404 47.0877 283.275 47.0877Z" fill="#473159"/>
<path d="M300.876 53.493L296.761 51.4449C297.364 46.9595 298.162 43.4958 301.674 40.5232L306.593 42.9473L300.876 53.493ZM347.144 53.0241L351.26 50.976C350.896 46.9683 350.293 43.8939 347.016 41.3991L342.098 43.8232L347.144 53.0241Z" fill="#682A8E"/>
<path d="M299.218 53.0462C296.894 67.5422 305.134 83.5333 318.766 87.3774C335.335 91.3453 350.479 76.2743 349.845 58.9428C349.943 41.4212 333.884 26.3413 318.558 34.4452C316.274 35.7635 313.804 36.4491 311.28 37.0463C304.881 39.3863 300.477 46.1676 299.218 53.0462ZM442.257 62.9461C442.08 62.9461 441.929 62.8046 441.925 62.6232C441.867 60.668 443.002 58.9074 443.996 57.5892C444.173 57.3548 444.355 57.1203 444.537 56.8859C445.424 55.7446 446.342 54.5635 446.781 53.2055C447.229 51.8077 447.171 50.1532 446.617 48.5387C446.151 47.1895 445.348 45.8359 444.156 44.3938C443.925 44.1151 443.685 43.8408 443.45 43.5666C442.692 42.6907 441.907 41.7883 441.357 40.7267C441.002 40.041 440.754 39.3023 440.515 38.5945C440.257 37.8337 440.018 37.1126 439.65 36.4402C438.191 33.7507 434.647 32.3883 431.756 33.3968C431.672 33.426 431.581 33.421 431.501 33.3828C431.421 33.3447 431.36 33.2766 431.33 33.1934C431.268 33.0208 431.361 32.8306 431.534 32.7687C434.723 31.6584 438.625 33.1624 440.235 36.1218C440.63 36.8472 440.891 37.6258 441.144 38.3822C441.375 39.0678 441.614 39.78 441.947 40.4214C442.457 41.4123 443.22 42.2838 443.952 43.1286C444.191 43.4073 444.435 43.686 444.666 43.9691C445.907 45.4731 446.75 46.8975 447.242 48.3219C447.845 50.0692 447.903 51.874 447.411 53.4046C446.941 54.8732 445.983 56.1029 445.06 57.2884C444.878 57.5184 444.701 57.7529 444.524 57.9829C443.592 59.2127 442.532 60.8494 442.586 62.5967C442.587 62.6403 442.579 62.6836 442.564 62.7243C442.548 62.765 442.525 62.8023 442.494 62.8339C442.464 62.8655 442.428 62.8909 442.388 62.9087C442.349 62.9264 442.306 62.9362 442.262 62.9373C442.262 62.9461 442.262 62.9461 442.257 62.9461Z" fill="#473159"/>
<path d="M431.238 33.4278C431.194 33.4278 431.145 33.419 431.101 33.3968C431.061 33.3793 431.025 33.354 430.994 33.3224C430.964 33.2908 430.941 33.2536 430.925 33.2129C430.909 33.1722 430.902 33.1288 430.903 33.0852C430.904 33.0416 430.914 32.9987 430.932 32.9589C431.668 31.3178 431.345 29.2343 430.147 27.894C429.877 27.5887 429.447 27.2216 429.003 27.2393C428.826 27.2349 428.666 27.0977 428.666 26.9119C428.666 26.7261 428.808 26.5757 428.994 26.5757C429.549 26.5625 430.121 26.8588 430.648 27.456C432.019 28.9866 432.387 31.362 431.544 33.2376C431.487 33.357 431.367 33.4278 431.238 33.4278Z" fill="#473159"/>
<path d="M430.391 34.463C430.284 34.463 430.182 34.4143 430.116 34.3214C430.091 34.2858 430.073 34.2456 430.064 34.203C430.054 34.1605 430.054 34.1166 430.061 34.0738C430.069 34.031 430.085 33.9901 430.109 33.9537C430.133 33.9172 430.164 33.8858 430.2 33.8614C431.14 33.2111 432.107 32.5431 432.746 31.6053C433.42 30.6189 433.557 29.4422 433.096 28.6106C433.007 28.4514 433.065 28.2479 433.225 28.1594C433.384 28.0709 433.588 28.1284 433.677 28.2877C434.258 29.3361 434.107 30.787 433.296 31.9769C432.586 33.0165 431.522 33.7552 430.577 34.4055C430.522 34.443 430.457 34.463 430.391 34.463ZM394.85 66.4806C394.824 66.4806 394.797 66.4762 394.77 66.4717C394.593 66.4275 394.482 66.2461 394.527 66.0692C394.966 64.3175 394.402 62.3446 392.762 59.863C392.54 59.5268 392.309 59.195 392.083 58.8588C390.988 57.2663 389.852 55.6164 389.475 53.6788C389.058 51.5555 389.604 49.1359 391.01 46.8754C392.252 44.876 393.959 43.2349 395.609 41.6468C395.742 41.5185 395.95 41.5229 396.079 41.6556C396.207 41.7883 396.203 41.9963 396.07 42.1245C394.451 43.6816 392.775 45.2962 391.573 47.2249C390.256 49.3438 389.741 51.5953 390.123 53.555C390.473 55.3554 391.569 56.9478 392.624 58.4828C392.855 58.819 393.085 59.1552 393.311 59.4958C395.063 62.1455 395.653 64.2821 395.165 66.2284C395.134 66.3788 395.001 66.4806 394.85 66.4806Z" fill="#473159"/>
<path d="M417.707 100.679C415.267 100.679 412.833 100.307 410.522 99.5377C410.481 99.524 410.442 99.5022 410.409 99.4736C410.376 99.445 410.349 99.4101 410.33 99.371C410.311 99.3319 410.299 99.2894 410.296 99.2459C410.294 99.2024 410.3 99.1587 410.314 99.1175C410.371 98.945 410.562 98.8521 410.735 98.9096C417.893 101.294 426.301 99.7633 432.155 95.0169C432.297 94.9018 432.506 94.924 432.621 95.0655C432.736 95.2071 432.714 95.415 432.572 95.5344C428.434 98.883 423.055 100.679 417.707 100.679ZM423.277 103.97C423.104 103.97 422.957 103.837 422.944 103.665C422.931 103.484 423.068 103.324 423.25 103.307C425.228 103.149 427.137 102.508 428.807 101.44C428.962 101.343 429.166 101.387 429.268 101.542C429.366 101.696 429.321 101.9 429.166 102.002C427.403 103.128 425.39 103.804 423.303 103.97H423.277ZM471.647 167.864C471.62 167.864 471.589 167.859 471.563 167.855C469.368 167.284 468.055 165.104 467.731 163.197C467.713 163.091 467.749 162.98 467.824 162.905C467.9 162.83 468.01 162.794 468.117 162.812C472.929 163.684 476.889 163.688 479.266 162.825C479.307 162.809 479.352 162.801 479.396 162.802C479.44 162.803 479.484 162.813 479.525 162.832C479.565 162.85 479.602 162.876 479.632 162.909C479.662 162.941 479.686 162.98 479.701 163.021C479.716 163.063 479.722 163.107 479.72 163.152C479.718 163.196 479.706 163.239 479.687 163.279C479.668 163.319 479.64 163.355 479.607 163.384C479.573 163.413 479.534 163.435 479.492 163.449C476.45 164.551 471.922 164.139 468.485 163.551C468.889 165.121 469.993 166.762 471.731 167.214C471.909 167.258 472.015 167.439 471.971 167.621C471.926 167.762 471.793 167.864 471.647 167.864ZM401.094 151.598C400.961 151.598 400.837 151.519 400.783 151.386C400.717 151.214 400.801 151.023 400.974 150.957C409.418 147.692 416.691 141.663 421.454 133.979C421.477 133.943 421.507 133.911 421.543 133.885C421.578 133.86 421.618 133.842 421.66 133.832C421.703 133.822 421.747 133.821 421.79 133.828C421.833 133.835 421.874 133.85 421.911 133.873C421.948 133.896 421.98 133.926 422.005 133.962C422.031 133.997 422.049 134.037 422.059 134.079C422.069 134.121 422.07 134.165 422.063 134.208C422.056 134.251 422.04 134.292 422.017 134.329C417.179 142.132 409.786 148.259 401.209 151.576C401.173 151.593 401.134 151.601 401.094 151.598ZM410.136 153.509C410.058 153.509 409.982 153.481 409.922 153.43C409.862 153.379 409.822 153.309 409.809 153.231C409.796 153.154 409.811 153.074 409.852 153.007C409.892 152.94 409.955 152.889 410.03 152.864C413.611 151.664 416.868 149.659 419.547 147.002C419.676 146.874 419.889 146.874 420.017 147.002C420.146 147.131 420.146 147.343 420.017 147.471C417.264 150.198 413.92 152.258 410.243 153.492C410.207 153.501 410.172 153.509 410.136 153.509Z" fill="#00A0B5"/>
<path d="M323.334 112.503C315.831 112.503 308.402 109.367 303.218 103.939C303.089 103.806 303.098 103.599 303.231 103.47C303.364 103.342 303.573 103.346 303.701 103.484C309.112 109.146 317.015 112.251 324.842 111.8C325.019 111.787 325.184 111.928 325.192 112.114C325.195 112.157 325.189 112.201 325.174 112.242C325.159 112.283 325.137 112.321 325.108 112.354C325.078 112.386 325.043 112.413 325.004 112.431C324.964 112.45 324.921 112.461 324.878 112.463C324.363 112.49 323.849 112.503 323.334 112.503ZM328.802 111.893C328.621 111.893 328.474 111.751 328.47 111.57C328.465 111.388 328.612 111.234 328.793 111.229C331.086 111.176 333.397 110.451 335.299 109.177C335.45 109.075 335.659 109.115 335.761 109.27C335.863 109.42 335.823 109.628 335.667 109.73C333.658 111.07 331.224 111.84 328.807 111.893H328.802ZM292.464 172.867H292.441C284.734 172.367 277.146 170.027 270.503 166.094C270.465 166.072 270.432 166.043 270.406 166.008C270.38 165.973 270.361 165.933 270.35 165.891C270.339 165.848 270.337 165.804 270.343 165.761C270.35 165.718 270.365 165.676 270.387 165.639C270.48 165.48 270.684 165.431 270.844 165.524C277.399 169.403 284.885 171.712 292.486 172.203C292.574 172.206 292.657 172.244 292.718 172.308C292.778 172.373 292.81 172.458 292.807 172.546C292.804 172.634 292.767 172.717 292.702 172.778C292.638 172.838 292.552 172.87 292.464 172.867ZM306.655 199.236C306.572 199.235 306.491 199.204 306.43 199.147C306.369 199.091 306.331 199.013 306.324 198.931C306.318 198.848 306.342 198.765 306.394 198.7C306.445 198.634 306.519 198.59 306.602 198.577C319.245 196.542 330.993 190.251 339.685 180.869C339.809 180.736 340.022 180.728 340.155 180.851C340.288 180.975 340.297 181.188 340.173 181.32C331.379 190.813 319.494 197.174 306.704 199.231C306.69 199.236 306.673 199.236 306.655 199.236ZM319.126 202.027C319.057 202.027 318.989 202.006 318.933 201.966C318.876 201.927 318.834 201.871 318.811 201.806C318.781 201.723 318.785 201.632 318.822 201.552C318.86 201.473 318.927 201.411 319.01 201.381C324.855 199.289 330.255 196.123 334.931 192.047C335.069 191.928 335.282 191.941 335.401 192.078C335.521 192.215 335.508 192.428 335.37 192.547C330.633 196.679 325.16 199.887 319.236 202.005C319.201 202.018 319.161 202.027 319.126 202.027Z" fill="#A481C1"/>
<path d="M220.536 103.338C220.523 103.338 220.509 103.338 220.496 103.333C215.232 102.692 210.11 100.445 206.079 97.0119C206.012 96.9541 205.971 96.8725 205.964 96.7847C205.958 96.6969 205.986 96.6101 206.043 96.543C206.163 96.4014 206.371 96.3882 206.513 96.5076C210.447 99.8607 215.445 102.05 220.58 102.674C220.762 102.696 220.891 102.86 220.869 103.046C220.847 103.214 220.7 103.338 220.536 103.338ZM224.279 103.395C223.969 103.395 223.658 103.373 223.352 103.32C223.309 103.313 223.268 103.298 223.23 103.275C223.193 103.252 223.161 103.222 223.135 103.187C223.11 103.151 223.091 103.111 223.081 103.069C223.072 103.026 223.07 102.982 223.077 102.939C223.104 102.758 223.281 102.634 223.459 102.665C224.678 102.86 225.982 102.612 227.042 101.98C227.202 101.887 227.406 101.94 227.499 102.095C227.592 102.254 227.543 102.457 227.383 102.55C226.457 103.103 225.366 103.395 224.279 103.395ZM282.548 159.273C282.494 159.274 282.44 159.261 282.392 159.236C282.344 159.211 282.303 159.175 282.273 159.13C282.242 159.085 282.224 159.034 282.218 158.98C282.213 158.926 282.221 158.872 282.242 158.822C284.548 152.952 286.144 146.808 286.991 140.562C287.018 140.38 287.182 140.252 287.364 140.279C287.546 140.305 287.674 140.469 287.648 140.65C286.795 146.958 285.187 153.14 282.858 159.065C282.805 159.189 282.681 159.273 282.548 159.273ZM171.359 156.871C171.27 156.871 171.186 156.836 171.119 156.77C163.979 149.435 158.351 140.478 154.835 130.879C154.818 130.837 154.811 130.793 154.812 130.749C154.813 130.705 154.823 130.661 154.841 130.62C154.859 130.58 154.886 130.544 154.918 130.513C154.951 130.483 154.989 130.46 155.031 130.445C155.073 130.43 155.117 130.423 155.162 130.426C155.206 130.428 155.25 130.439 155.29 130.459C155.33 130.478 155.365 130.505 155.395 130.539C155.424 130.572 155.446 130.611 155.46 130.653C158.946 140.168 164.525 149.042 171.598 156.31C171.727 156.442 171.722 156.65 171.589 156.778C171.527 156.84 171.443 156.871 171.359 156.871ZM222.47 212.042C222.328 212.042 222.195 211.949 222.15 211.803C222.097 211.626 222.199 211.44 222.372 211.392C231.818 208.596 240.329 203.279 246.972 196.02C247.096 195.883 247.304 195.874 247.442 195.998C247.579 196.121 247.588 196.329 247.464 196.466C240.736 203.814 232.127 209.192 222.563 212.024C222.532 212.037 222.501 212.042 222.47 212.042ZM232.275 164.015C232.124 164.015 231.987 163.914 231.951 163.759C231.907 163.582 232.018 163.4 232.195 163.361C236.665 162.295 240.75 159.53 243.393 155.779C243.499 155.628 243.708 155.593 243.854 155.699C244.005 155.805 244.04 156.013 243.934 156.159C241.198 160.039 236.971 162.901 232.346 164.007C232.328 164.011 232.302 164.015 232.275 164.015Z" fill="#98794D"/>
<path d="M244.041 185.722H244.036C243.948 185.719 243.865 185.683 243.804 185.62C243.742 185.557 243.708 185.473 243.708 185.385C243.788 181.165 242.848 176.937 240.985 173.146C240.946 173.067 240.94 172.976 240.969 172.893C240.997 172.81 241.057 172.742 241.136 172.703C241.3 172.624 241.499 172.69 241.579 172.854C243.486 176.737 244.453 181.073 244.369 185.399C244.369 185.58 244.218 185.722 244.041 185.722ZM21.9729 126.159C21.9089 126.159 21.846 126.142 21.7919 126.107C21.7378 126.073 21.6947 126.024 21.668 125.966C21.6412 125.908 21.6319 125.844 21.6412 125.78C21.6504 125.717 21.6778 125.658 21.7201 125.61C24.993 121.779 28.8601 118.55 33.2151 116.015C33.2529 115.993 33.2948 115.979 33.3382 115.973C33.3817 115.967 33.4259 115.97 33.4683 115.981C33.5107 115.992 33.5505 116.011 33.5854 116.038C33.6204 116.064 33.6497 116.097 33.6719 116.135C33.694 116.173 33.7085 116.214 33.7144 116.258C33.7204 116.301 33.7177 116.345 33.7066 116.387C33.6955 116.43 33.6761 116.469 33.6496 116.504C33.6231 116.539 33.59 116.568 33.5521 116.59C29.2693 119.082 25.4398 122.278 22.2257 126.044C22.1592 126.119 22.066 126.159 21.9729 126.159Z" fill="#ED0922"/>
<path d="M176.504 114.64C176.442 114.64 176.381 114.623 176.329 114.59C176.276 114.558 176.234 114.511 176.206 114.456C176.178 114.401 176.167 114.339 176.172 114.278C176.178 114.217 176.2 114.158 176.237 114.109C180.312 108.729 185.786 104.564 192.065 102.068C192.234 102.002 192.429 102.081 192.495 102.254C192.562 102.422 192.482 102.616 192.309 102.683C186.141 105.132 180.765 109.222 176.765 114.507C176.735 114.548 176.696 114.582 176.651 114.605C176.605 114.628 176.555 114.64 176.504 114.64Z" fill="#98794D"/>
<path d="M119.494 194.034C119.326 194.034 119.179 193.905 119.162 193.733C119.144 193.551 119.281 193.388 119.463 193.37C130.976 192.326 142.143 186.925 150.103 178.56C150.232 178.427 150.44 178.423 150.573 178.547C150.706 178.675 150.711 178.883 150.587 179.016C142.52 187.496 131.198 192.967 119.525 194.029C119.512 194.034 119.503 194.034 119.494 194.034ZM131.131 199.873C130.98 199.873 130.843 199.771 130.807 199.616C130.768 199.439 130.878 199.258 131.056 199.218C136.679 197.904 142.152 195.462 146.879 192.149C147.03 192.043 147.238 192.083 147.34 192.229C147.447 192.379 147.411 192.587 147.261 192.689C142.467 196.046 136.914 198.528 131.207 199.859C131.18 199.873 131.153 199.873 131.131 199.873Z" fill="#ED0922"/>
<path d="M499.968 222.287H55.8902C55.7084 222.287 55.5576 222.136 55.5576 221.955C55.5576 221.774 55.7084 221.623 55.8902 221.623H499.968C500.056 221.623 500.141 221.658 500.203 221.72C500.265 221.783 500.3 221.867 500.3 221.955C500.3 222.043 500.265 222.127 500.203 222.19C500.141 222.252 500.056 222.287 499.968 222.287ZM228.31 235H117.782C117.6 235 117.45 234.85 117.45 234.668C117.45 234.487 117.6 234.336 117.782 234.336H228.31C228.492 234.336 228.643 234.487 228.643 234.668C228.643 234.85 228.492 235 228.31 235ZM284.934 235H242.661C242.48 235 242.329 234.85 242.329 234.668C242.329 234.487 242.48 234.336 242.661 234.336H284.929C285.111 234.336 285.262 234.487 285.262 234.668C285.262 234.85 285.116 235 284.934 235Z" fill="#473159"/>
<path d="M377.714 41.4565C378.998 41.4565 380.038 40.4188 380.038 39.1386C380.038 37.8585 378.998 36.8207 377.714 36.8207C376.431 36.8207 375.391 37.8585 375.391 39.1386C375.391 40.4188 376.431 41.4565 377.714 41.4565Z" fill="#A481C1"/>
<path d="M55.8902 118.939C57.1737 118.939 58.2141 117.902 58.2141 116.621C58.2141 115.341 57.1737 114.304 55.8902 114.304C54.6068 114.304 53.5664 115.341 53.5664 116.621C53.5664 117.902 54.6068 118.939 55.8902 118.939Z" fill="#FF8F9C"/>
<path d="M514.869 170.421C516.152 170.421 517.193 169.383 517.193 168.103C517.193 166.823 516.152 165.785 514.869 165.785C513.585 165.785 512.545 166.823 512.545 168.103C512.545 169.383 513.585 170.421 514.869 170.421Z" fill="#FF8F9C"/>
<path d="M173.673 60.6459C174.317 60.6459 174.84 60.1251 174.84 59.4825C174.84 58.84 174.317 58.3192 173.673 58.3192C173.029 58.3192 172.507 58.84 172.507 59.4825C172.507 60.1251 173.029 60.6459 173.673 60.6459Z" fill="#A481C1"/>
<path d="M68.4798 122.244C69.124 122.244 69.6462 121.723 69.6462 121.08C69.6462 120.438 69.124 119.917 68.4798 119.917C67.8357 119.917 67.3135 120.438 67.3135 121.08C67.3135 121.723 67.8357 122.244 68.4798 122.244Z" fill="#FFB157"/>
<path d="M364.614 31.163C365.258 31.163 365.78 30.6421 365.78 29.9996C365.78 29.3571 365.258 28.8362 364.614 28.8362C363.969 28.8362 363.447 29.3571 363.447 29.9996C363.447 30.6421 363.969 31.163 364.614 31.163Z" fill="#FFB157"/>
<path d="M508.168 101.046C508.812 101.046 509.335 100.525 509.335 99.8828C509.335 99.2402 508.812 98.7194 508.168 98.7194C507.524 98.7194 507.002 99.2402 507.002 99.8828C507.002 100.525 507.524 101.046 508.168 101.046Z" fill="#FFB157"/>
</svg>
